<?xml version="1.0" standalone="no"?>
<!DOCTYPE svg PUBLIC "-//W3C//DTD SVG 20010904//EN"
 "http://www.w3.org/TR/2001/REC-SVG-20010904/DTD/svg10.dtd">
<svg version="1.0" xmlns="http://www.w3.org/2000/svg"
 width="1024.000000pt" height="1024.000000pt" viewBox="0 0 1024.000000 1024.000000"
 preserveAspectRatio="xMidYMid meet">

<g transform="translate(0.000000,1024.000000) scale(0.100000,-0.100000)"
fill="#000000" stroke="none">
<path d="M8515 9890 c-66 -4 -122 -8 -124 -9 -9 -3 7 -125 17 -129 7 -2 12
-16 13 -30 0 -26 1 -26 9 -4 7 16 18 22 39 22 22 0 31 6 37 23 18 62 56 65 69
7 5 -24 13 -31 41 -36 42 -8 43 -16 3 -45 -24 -17 -29 -26 -25 -45 7 -26 -4
-30 -33 -12 -19 11 -32 8 -63 -14 -25 -18 -44 2 -28 31 13 26 6 41 -21 41 -11
0 -17 -4 -14 -10 3 -5 0 -10 -7 -10 -10 0 -14 -18 -13 -71 0 -87 -6 -100 -28
-55 -30 64 -84 307 -72 326 3 6 0 10 -9 10 -8 0 -21 3 -30 6 -13 5 -16 -1 -16
-27 l-1 -34 -15 28 c-12 21 -22 27 -50 27 -74 0 -114 -43 -114 -124 0 -136
124 -306 243 -332 38 -8 179 -126 189 -157 3 -12 6 -56 7 -98 l1 -76 -37 -26
c-21 -14 -52 -28 -69 -32 -52 -10 -68 -37 -72 -118 -3 -55 -9 -77 -24 -94 -12
-12 -18 -29 -15 -37 6 -14 39 -16 251 -16 l246 0 6 25 c4 17 1 32 -10 44 -11
13 -16 37 -16 87 0 72 -10 94 -42 94 -10 0 -18 4 -18 9 0 5 -22 23 -50 40
l-50 31 0 95 0 96 70 69 c39 39 77 70 84 70 31 0 120 57 165 106 79 86 115
213 83 290 -20 48 -85 69 -133 44 -15 -8 -19 -7 -19 4 0 7 -7 17 -16 20 -19 7
-172 5 -339 -4z m-278 -88 c11 -7 81 -216 98 -291 21 -96 -142 47 -180 158
-18 54 -19 113 -3 129 13 13 66 16 85 4z m733 -17 c18 -47 -13 -142 -70 -215
-28 -36 -102 -84 -113 -74 -3 3 1 25 9 47 8 23 26 87 40 142 14 55 30 106 36
112 6 7 28 13 49 13 33 0 41 -4 49 -25z m-282 -866 c-3 -27 -9 -54 -14 -59 -5
-5 -64 -6 -134 -2 l-125 7 -3 39 c-6 67 -7 66 144 66 l137 0 -5 -51z"/>
<path d="M1885 9878 c-3 -7 -6 -206 -7 -443 -3 -424 -3 -430 17 -430 20 0 20
10 29 418 4 229 5 428 2 442 -7 26 -33 34 -41 13z"/>
<path d="M1726 9448 c3 -238 7 -439 10 -446 2 -8 15 -12 31 -10 l28 3 6 140
c4 77 7 273 8 436 l1 297 -22 6 c-13 3 -33 6 -45 6 l-22 0 5 -432z"/>
<path d="M3062 9848 c-17 -17 -15 -103 3 -118 11 -9 18 -10 29 -1 17 15 49
108 41 121 -9 14 -59 12 -73 -2z m49 -33 c-1 -15 -24 -12 -29 3 -3 9 2 13 12
10 10 -1 17 -7 17 -13z"/>
<path d="M6110 9839 c-47 -19 -54 -63 -15 -99 l25 -24 -11 32 c-16 45 -6 62
35 62 30 0 37 -4 42 -25 3 -14 4 -35 1 -48 -6 -21 -6 -21 8 -3 21 28 19 59 -6
90 -22 28 -39 31 -79 15z"/>
<path d="M7414 9835 c-7 -17 2 -45 14 -45 20 0 45 28 39 44 -8 20 -46 21 -53
1z"/>
<path d="M7842 9829 c3 -26 34 -37 51 -20 13 13 2 26 -31 36 -21 6 -23 4 -20
-16z"/>
<path d="M2461 9814 c-26 -33 -26 -41 -2 -54 26 -14 44 -13 66 3 17 13 17 15
-1 45 -22 39 -36 40 -63 6z"/>
<path d="M1589 9793 c-1 -4 0 -12 1 -18 2 -5 6 -183 9 -395 l6 -385 24 3 c14
1 27 4 29 6 6 6 8 774 2 779 -10 10 -70 18 -71 10z"/>
<path d="M4447 9793 c-4 -3 -7 -12 -7 -20 0 -11 5 -11 20 -3 11 6 20 15 20 20
0 11 -23 13 -33 3z"/>
<path d="M4552 9784 c4 -21 22 -23 26 -1 2 10 -3 17 -13 17 -10 0 -15 -6 -13
-16z"/>
<path d="M9425 9792 c-16 -2 -35 -8 -41 -12 -5 -5 -20 -7 -32 -3 -16 4 -30 -3
-52 -27 -46 -49 -39 -60 29 -40 18 5 39 17 46 27 11 14 28 18 87 18 67 0 78
-3 133 -37 33 -21 66 -38 72 -38 14 0 27 -36 18 -49 -3 -5 8 -18 24 -27 29
-17 30 -20 24 -75 -6 -56 -5 -58 20 -64 31 -8 79 6 85 24 2 7 -14 29 -37 50
-24 22 -41 47 -41 60 0 12 -18 41 -40 65 -22 24 -40 48 -40 53 0 6 -9 22 -20
35 -17 22 -31 27 -97 32 -43 4 -85 8 -93 10 -8 2 -28 1 -45 -2z"/>
<path d="M4662 9779 c2 -7 10 -15 17 -17 8 -3 12 1 9 9 -2 7 -10 15 -17 17 -8
3 -12 -1 -9 -9z"/>
<path d="M4785 9767 c-4 -10 -5 -21 -1 -24 10 -10 18 4 13 24 -4 17 -4 17 -12
0z"/>
<path d="M5664 9771 c-50 -13 -133 -62 -169 -102 -41 -46 -65 -121 -65 -204 0
-57 4 -68 46 -131 54 -81 122 -135 198 -159 54 -17 56 -17 111 5 95 39 164
104 165 157 0 12 10 31 21 42 20 18 21 28 17 103 -9 139 -59 224 -158 266 -54
24 -123 33 -166 23z m85 -52 c34 -7 64 -23 95 -50 59 -52 80 -108 74 -193 -7
-88 -32 -134 -93 -173 -27 -17 -61 -43 -75 -56 -14 -13 -30 -27 -36 -30 -17
-10 -115 41 -156 81 -48 46 -83 144 -74 208 13 97 82 193 153 212 51 14 55 14
112 1z"/>
<path d="M5705 9638 c-2 -7 -3 -21 -2 -31 1 -14 -10 -24 -39 -35 -58 -24 -71
-41 -78 -104 -5 -51 -3 -57 22 -80 40 -38 65 -48 117 -48 64 0 99 21 125 75
28 57 23 109 -15 167 -35 52 -118 88 -130 56z"/>
<path d="M5567 9531 c-4 -18 -7 -43 -6 -55 1 -11 5 -1 10 24 5 25 7 49 6 55
-2 5 -7 -5 -10 -24z"/>
<path d="M5622 9284 c9 -9 37 -18 64 -20 27 -2 40 -1 29 2 -11 3 -40 12 -65
20 -41 13 -43 13 -28 -2z"/>
<path d="M4307 9756 c-7 -16 1 -26 20 -26 7 0 13 9 13 20 0 23 -25 27 -33 6z"/>
<path d="M4220 9733 c0 -5 7 -18 15 -29 15 -18 15 -18 13 5 -3 23 -28 44 -28
24z"/>
<path d="M4887 9734 c-4 -4 -7 -14 -7 -23 0 -11 3 -12 11 -4 6 6 10 16 7 23
-2 6 -7 8 -11 4z"/>
<path d="M6730 9725 c-6 -8 -14 -50 -17 -93 -6 -90 6 -139 48 -193 l28 -36
-22 -31 c-27 -38 -43 -40 -76 -8 -43 40 -255 206 -264 206 -20 0 3 -27 50 -60
64 -45 223 -189 223 -203 0 -13 -90 -115 -189 -212 -45 -44 -81 -85 -81 -92 0
-7 9 -17 19 -22 16 -9 20 -7 25 13 3 12 64 82 135 154 l129 132 70 -73 c141
-145 153 -166 133 -221 -23 -59 -177 -106 -283 -86 -81 16 -83 18 -39 80 53
76 129 252 92 214 -5 -5 -44 -63 -86 -129 -42 -66 -82 -123 -88 -127 -7 -4 14
-19 48 -35 53 -25 72 -28 155 -28 86 0 100 3 145 28 66 37 185 135 211 175 27
39 64 185 64 251 0 95 -59 234 -126 296 l-26 25 -58 -73 c-31 -40 -79 -92
-105 -115 -57 -50 -68 -46 -90 39 -18 67 -18 152 -1 202 11 29 11 37 1 37 -7
0 -18 -7 -25 -15z m346 -186 c39 -79 66 -167 54 -174 -17 -10 -214 -15 -252
-6 -21 5 -38 6 -38 2 1 -26 26 -33 154 -43 l136 -11 0 -31 c0 -46 -38 -175
-61 -208 l-20 -28 -62 47 c-34 26 -99 85 -145 131 l-84 83 18 27 c9 15 27 36
38 47 40 39 191 207 199 222 14 24 31 9 63 -58z"/>
<path d="M9410 9712 c-34 -5 -60 -30 -60 -57 0 -33 8 -35 53 -15 35 16 53 36
56 61 1 10 -21 15 -49 11z"/>
<path d="M9502 9688 c3 -28 8 -33 38 -39 47 -10 60 -32 60 -106 0 -89 -19
-129 -67 -142 -21 -6 -53 -11 -70 -11 -32 0 -33 1 -33 43 0 23 3 59 6 80 6 31
11 37 30 37 22 0 24 -4 24 -54 0 -63 7 -86 26 -86 29 0 31 153 3 171 -8 5 -34
8 -59 7 l-45 -3 -5 -82 c-3 -45 -8 -85 -11 -88 -11 -10 -57 13 -63 32 -5 17
-18 93 -31 176 -3 20 -11 37 -17 37 -6 0 -8 -12 -4 -32 4 -24 3 -29 -4 -18 -5
8 -10 24 -10 36 0 28 -9 35 -30 24 -17 -9 -60 -69 -60 -84 0 -3 25 -3 55 0 30
4 55 3 56 -2 0 -5 1 -37 2 -70 2 -52 7 -69 37 -113 39 -57 57 -65 141 -65 65
1 70 3 143 71 l56 52 0 79 0 78 -65 52 c-77 62 -108 68 -103 20z"/>
<path d="M2707 9703 c-4 -3 -7 -19 -7 -34 0 -21 7 -29 31 -38 47 -16 56 -14
68 19 16 46 5 60 -43 60 -24 0 -46 -3 -49 -7z"/>
<path d="M7260 9697 c0 -34 62 -52 74 -21 5 13 1 15 -18 10 -16 -4 -26 -1 -30
9 -7 18 -26 20 -26 2z"/>
<path d="M2184 9683 c3 -10 8 -30 12 -45 7 -33 6 -32 44 -13 29 15 46 47 35
65 -3 5 -26 10 -51 10 -39 0 -45 -3 -40 -17z"/>
<path d="M7720 9680 c0 -13 7 -20 20 -20 23 0 26 10 8 28 -18 18 -28 15 -28
-8z"/>
<path d="M7610 9676 c0 -9 7 -16 16 -16 9 0 14 5 12 12 -6 18 -28 21 -28 4z"/>
<path d="M1458 9333 c2 -250 6 -339 15 -345 7 -4 -75 -8 -181 -8 -187 0 -192
1 -182 19 6 12 10 112 10 254 l0 234 -37 0 -38 0 0 -244 c0 -206 2 -245 15
-253 10 -7 -2 -10 -43 -10 -54 0 -57 1 -47 19 6 12 10 92 10 190 l0 171 -40 0
-40 0 0 -178 c0 -125 4 -182 12 -190 9 -9 1 -12 -39 -12 l-52 0 10 32 c5 18 9
95 9 172 0 122 -2 137 -16 132 -9 -3 -27 -6 -40 -6 l-24 0 0 -146 c0 -81 5
-154 10 -165 10 -18 7 -19 -41 -19 -39 0 -50 3 -46 14 3 7 9 71 13 141 l7 128
-24 -6 c-13 -4 -34 -7 -46 -7 -23 0 -23 -2 -23 -119 0 -95 3 -123 16 -135 14
-15 11 -16 -31 -16 l-46 0 6 83 c3 45 8 113 11 151 5 61 4 68 -11 62 -9 -3
-32 -6 -51 -6 -20 0 -33 -4 -30 -8 3 -5 6 -69 7 -143 l1 -134 -31 -3 c-23 -3
-31 -8 -31 -24 0 -19 4 -20 158 -14 86 3 421 5 745 5 526 1 587 3 587 17 0 11
-8 15 -27 13 -16 -1 -102 -1 -193 -1 l-165 2 7 112 c8 148 10 507 2 547 -6 28
-10 31 -43 31 l-36 0 3 -337z"/>
<path d="M4550 9628 c0 -13 3 -46 6 -74 l7 -52 61 -11 c94 -18 126 -31 187
-72 109 -73 187 -235 176 -363 -6 -79 -49 -184 -97 -239 -76 -86 -203 -151
-316 -162 -93 -8 -288 83 -338 159 -9 14 -20 26 -24 26 -4 0 -31 -21 -61 -47
l-53 -46 -25 29 -24 29 18 -34 c32 -61 143 -166 212 -200 88 -45 198 -71 295
-71 160 0 277 51 396 170 123 124 170 236 170 410 0 171 -40 270 -155 385
-113 113 -258 184 -377 185 -54 0 -58 -2 -58 -22z m360 -178 c-6 -11 -15 -18
-20 -15 -13 8 0 35 16 35 12 0 12 -4 4 -20z m-670 -707 c0 -10 -32 -43 -42
-43 -15 0 -8 29 10 39 20 12 32 14 32 4z m329 -185 c1 -16 -3 -28 -9 -28 -6 0
-10 24 -9 53 1 41 3 47 9 27 4 -14 8 -37 9 -52z"/>
<path d="M4136 9631 c-7 -11 18 -33 27 -24 4 3 7 12 7 20 0 15 -26 18 -34 4z"/>
<path d="M7652 9594 c-43 -30 -8 -105 36 -78 21 14 29 74 10 85 -18 12 -20 11
-46 -7z"/>
<path d="M1350 9592 l-35 -3 3 -287 c3 -184 8 -292 15 -300 5 -7 20 -12 31
-10 18 3 22 12 27 68 9 94 10 528 2 532 -5 2 -24 2 -43 0z"/>
<path d="M4071 9564 c0 -11 3 -14 6 -6 3 7 2 16 -1 19 -3 4 -6 -2 -5 -13z"/>
<path d="M9140 9535 c-19 -22 -1 -70 25 -70 11 0 26 -4 33 -8 10 -7 13 2 10
40 -3 43 -6 48 -29 51 -15 2 -31 -4 -39 -13z"/>
<path d="M3394 9511 c-42 -26 -64 -59 -64 -97 0 -37 36 -94 70 -111 21 -10 22
-13 7 -19 -31 -12 -54 8 -114 102 -11 18 -12 17 -12 -7 -1 -36 53 -114 89
-129 17 -7 50 -10 76 -7 37 4 53 13 84 45 51 53 57 78 30 140 -39 91 -103 123
-166 83z m31 -23 c-11 -6 -30 -20 -42 -31 -24 -22 -31 -13 -10 14 13 17 33 27
57 28 10 0 8 -3 -5 -11z m12 -112 c-9 -23 -37 -20 -37 3 0 21 20 33 34 20 5
-4 6 -15 3 -23z m39 20 c7 -17 -14 -59 -25 -52 -10 7 -1 66 10 66 5 0 12 -6
15 -14z"/>
<path d="M1210 9512 l-36 -3 4 -247 c2 -136 5 -253 7 -259 5 -14 51 -18 58 -5
10 14 19 509 11 513 -5 2 -25 3 -44 1z"/>
<path d="M3618 9429 c4 -63 1 -82 -18 -118 -24 -47 -21 -67 5 -28 25 39 36
129 21 179 -12 42 -13 41 -8 -33z"/>
<path d="M2130 9470 c0 -6 -9 -30 -20 -52 -25 -52 -25 -60 -1 -82 19 -17 21
-17 50 5 17 13 31 26 31 29 0 4 -14 19 -30 34 -24 21 -29 32 -24 51 3 14 3 25
0 25 -3 0 -6 -5 -6 -10z"/>
<path d="M3292 9460 c0 -14 2 -19 5 -12 2 6 2 18 0 25 -3 6 -5 1 -5 -13z"/>
<path d="M3556 9467 c3 -10 9 -15 12 -12 3 3 0 11 -7 18 -10 9 -11 8 -5 -6z"/>
<path d="M3672 9460 c0 -14 2 -19 5 -12 2 6 2 18 0 25 -3 6 -5 1 -5 -13z"/>
<path d="M7865 9426 c3 -53 -3 -61 -94 -105 -90 -44 -174 -38 -253 20 -23 16
-51 29 -63 27 -26 -4 -32 -41 -11 -73 12 -18 12 -25 3 -28 -8 -3 -4 -11 11
-25 18 -16 22 -28 19 -58 -2 -21 -10 -40 -17 -42 -9 -3 -11 1 -7 11 3 9 2 19
-4 22 -5 4 -12 -1 -16 -11 -4 -12 2 -25 21 -41 38 -32 51 -29 69 18 15 37 18
39 38 29 18 -10 21 -18 16 -55 -5 -46 3 -55 45 -55 17 0 19 6 16 38 -3 35 -2
37 30 40 l32 3 0 -50 c0 -63 19 -68 70 -16 26 25 44 34 68 35 18 0 42 5 53 10
24 13 25 46 1 59 -30 16 -46 55 -33 80 17 32 34 26 26 -9 -6 -28 -5 -30 24
-30 24 0 31 4 31 20 0 11 -9 25 -19 32 -19 11 -18 12 3 29 12 10 28 36 35 59
10 35 10 45 -3 65 -8 12 -25 25 -38 27 -13 3 -31 9 -40 12 -14 7 -16 1 -13
-38z m-37 -264 c2 -15 -3 -21 -19 -24 -15 -2 -26 -12 -30 -28 -6 -22 -7 -21
-8 9 -2 56 49 95 57 43z"/>
<path d="M2718 9444 c-5 -4 -8 -23 -8 -43 0 -20 -8 -58 -17 -85 -17 -46 -23
-52 -83 -80 -56 -27 -76 -31 -145 -31 -57 0 -90 5 -114 18 -19 9 -36 15 -38
13 -9 -8 53 -57 94 -73 28 -12 46 -28 57 -50 19 -41 32 -41 54 -3 9 16 22 30
27 30 23 0 132 59 155 84 19 21 26 42 30 94 6 72 0 138 -12 126z"/>
<path d="M2873 9438 c5 -13 -2 -22 -24 -33 -37 -20 -36 -53 1 -72 20 -10 29
-10 45 1 30 20 29 41 -1 83 -14 21 -24 30 -21 21z"/>
<path d="M7455 9430 c-3 -6 1 -7 9 -4 18 7 21 14 7 14 -6 0 -13 -4 -16 -10z"/>
<path d="M9196 9416 c-10 -35 -7 -81 6 -94 14 -14 64 -16 73 -2 3 5 1 27 -5
49 -7 28 -19 44 -39 54 -27 14 -30 13 -35 -7z"/>
<path d="M9713 9416 c-15 -13 -33 -38 -39 -54 -11 -28 -10 -33 12 -47 32 -21
50 -19 68 7 17 23 20 57 10 96 -8 28 -16 28 -51 -2z"/>
<path d="M3658 9323 c-31 -105 -125 -173 -241 -173 -55 0 -67 4 -97 30 -39 32
-60 38 -60 15 0 -21 -30 -19 -47 3 -11 12 -13 13 -10 2 2 -8 35 -33 73 -55 65
-37 74 -39 149 -39 68 0 88 4 135 28 61 31 124 87 146 129 14 27 14 28 -3 19
-10 -6 -27 -20 -37 -31 -11 -12 -24 -21 -29 -21 -6 0 -3 8 6 18 10 10 17 25
17 33 0 8 5 20 11 26 6 6 9 25 7 42 -3 29 -5 27 -20 -26z"/>
<path d="M9140 9350 c0 -11 5 -20 10 -20 6 0 10 9 10 20 0 11 -4 20 -10 20 -5
0 -10 -9 -10 -20z"/>
<path d="M4485 9351 c-50 -12 -89 -37 -129 -81 -51 -57 -68 -102 -69 -186 -2
-135 76 -235 212 -270 158 -40 299 46 331 202 20 95 -10 207 -72 272 -31 31
-120 72 -157 72 -21 0 -41 -45 -41 -91 0 -16 -5 -29 -11 -29 -7 0 -9 9 -6 23
3 12 9 39 12 60 7 34 6 37 -16 36 -13 -1 -37 -4 -54 -8z m156 -203 c34 -47 35
-84 4 -131 -22 -34 -80 -60 -112 -52 -42 10 -93 68 -93 105 0 68 55 119 127
120 39 0 46 -4 74 -42z"/>
<path d="M9585 9282 c-64 -33 -62 -31 -45 -43 13 -8 13 -10 0 -19 -19 -13 -37
-13 -45 0 -12 19 -25 -1 -19 -28 10 -42 13 -43 53 -23 27 14 49 18 79 14 48
-6 52 2 25 48 -16 26 -16 29 0 47 36 39 21 40 -48 4z"/>
<path d="M9306 9283 c4 -10 6 -39 5 -65 l-2 -48 45 0 c37 0 48 4 62 25 25 39
15 57 -51 82 -71 28 -69 27 -59 6z"/>
<path d="M6345 9270 c32 -11 223 -15 233 -6 3 3 -37 6 -89 6 -52 0 -112 2
-134 5 -37 5 -38 4 -10 -5z"/>
<path d="M2820 9212 c-22 -40 -30 -48 -63 -53 -21 -3 -46 -14 -55 -23 -15 -15
-15 -19 -2 -44 20 -34 63 -51 84 -32 9 7 16 28 16 46 0 18 11 59 25 90 31 70
28 79 -5 16z"/>
<path d="M9163 9248 c-31 -40 -18 -74 33 -84 24 -5 36 -1 52 16 32 35 5 80
-49 80 -14 0 -31 -6 -36 -12z"/>
<path d="M3290 9245 c0 -2 17 -16 37 -30 61 -41 191 -31 231 17 10 13 5 12
-25 -2 -21 -10 -63 -22 -93 -25 -47 -6 -62 -3 -102 19 -27 14 -48 23 -48 21z"/>
<path d="M9712 9232 c-8 -5 -12 -22 -10 -38 3 -27 6 -29 50 -32 39 -3 49 0 58
19 9 17 9 24 -2 34 -17 18 -79 28 -96 17z"/>
<path d="M4001 9204 c0 -11 3 -14 6 -6 3 7 2 16 -1 19 -3 4 -6 -2 -5 -13z"/>
<path d="M9887 9197 c-4 -10 -7 -28 -7 -40 1 -20 2 -20 11 -4 6 10 9 28 7 40
-3 20 -4 20 -11 4z"/>
<path d="M8990 9188 c0 -4 6 -8 14 -8 8 0 21 -3 30 -6 9 -3 16 -2 16 4 0 5
-13 12 -30 14 -16 3 -30 1 -30 -4z"/>
<path d="M3988 9103 c-3 -43 -2 -98 2 -123 6 -33 8 -13 9 78 0 67 -1 122 -3
122 -2 0 -5 -35 -8 -77z"/>
<path d="M2214 9150 c-47 -19 -28 -90 23 -90 50 0 72 73 27 90 -14 6 -26 10
-27 9 -1 0 -12 -4 -23 -9z"/>
<path d="M8105 9141 c-19 -8 -19 -8 2 -19 23 -12 83 1 69 15 -10 11 -49 13
-71 4z"/>
<path d="M9730 9130 c0 -5 9 -10 19 -10 11 0 23 5 26 10 4 6 -5 10 -19 10 -14
0 -26 -4 -26 -10z"/>
<path d="M3890 9070 c0 -5 5 -10 10 -10 6 0 10 5 10 10 0 6 -4 10 -10 10 -5 0
-10 -4 -10 -10z"/>
<path d="M5220 9069 c0 -5 5 -7 10 -4 6 3 10 8 10 11 0 2 -4 4 -10 4 -5 0 -10
-5 -10 -11z"/>
<path d="M3070 9056 c0 -18 30 -30 43 -17 5 5 6 14 3 20 -10 16 -46 13 -46 -3z"/>
<path d="M5694 9059 c-9 -15 6 -29 32 -29 14 0 24 6 24 14 0 15 -48 28 -56 15z"/>
<path d="M2360 9040 c0 -5 14 -11 31 -15 17 -4 42 -20 56 -36 30 -33 58 -37
72 -11 6 11 31 23 63 31 98 22 86 30 -41 26 -67 -2 -135 1 -152 5 -16 5 -29 5
-29 0z"/>
<path d="M3370 8980 c0 -13 28 -25 38 -16 3 4 0 11 -8 16 -20 13 -30 12 -30 0z"/>
<path d="M3710 8970 c-9 -16 -8 -22 5 -26 21 -8 39 10 32 30 -9 22 -24 20 -37
-4z"/>
<path d="M3660 8945 c-7 -9 -10 -18 -7 -21 10 -11 37 5 37 21 0 19 -14 19 -30
0z"/>
<path d="M5716 8868 c-2 -7 -7 -25 -10 -39 -5 -21 -15 -28 -67 -43 -158 -44
-248 -127 -290 -270 -12 -39 -25 -76 -30 -81 -13 -17 46 -174 88 -233 49 -69
132 -120 241 -150 76 -20 84 -20 138 -6 171 44 299 165 320 302 4 26 14 48 25
55 25 15 24 22 -5 35 -19 8 -27 23 -36 69 -20 104 -31 127 -78 170 -49 45
-169 109 -223 120 -38 7 -49 18 -49 50 0 25 -18 41 -24 21z m-1 -118 c5 -8 11
-8 20 0 27 22 171 -28 215 -76 13 -13 29 -24 37 -24 7 0 13 -6 13 -13 0 -7 9
-31 19 -53 49 -101 59 -220 26 -302 -32 -78 -201 -202 -276 -202 -27 0 -27 1
-34 84 -4 46 -4 89 -1 95 4 6 3 11 -3 11 -6 0 -11 -38 -13 -92 l-3 -93 -46 1
c-62 2 -120 34 -185 102 -73 76 -95 124 -101 221 -5 74 -4 84 26 148 47 100
99 149 194 183 58 22 103 25 112 10z"/>
<path d="M5470 8471 c0 -16 5 -33 10 -36 6 -3 10 1 10 10 0 9 5 13 11 9 7 -4
9 2 7 17 -1 13 -11 25 -20 27 -14 3 -18 -3 -18 -27z"/>
<path d="M5521 8446 c-8 -9 -11 -19 -7 -23 9 -9 29 13 24 27 -2 8 -8 7 -17 -4z"/>
<path d="M7663 8843 c-46 -4 -54 -7 -59 -29 -7 -26 2 -266 12 -347 6 -50 -1
-97 -15 -97 -26 0 -99 250 -117 403 -7 57 -7 57 -41 57 l-34 0 6 -62 c7 -66
31 -177 64 -291 17 -59 18 -69 5 -74 -65 -25 -188 134 -201 258 -7 69 14 93
77 87 43 -4 52 10 26 45 -17 22 -93 23 -123 2 -70 -49 -38 -250 57 -359 31
-35 134 -96 161 -96 7 0 21 7 31 17 17 15 18 15 18 -1 0 -31 42 -100 84 -139
41 -38 41 -39 44 -122 4 -83 4 -84 -25 -98 -15 -8 -36 -24 -46 -35 -10 -11
-41 -26 -68 -32 -27 -7 -52 -16 -55 -21 -3 -5 -5 -57 -5 -114 l1 -105 -26 0
c-22 0 -25 -4 -22 -27 l3 -28 256 -3 c153 -1 267 2 283 8 31 11 33 32 7 57
-15 14 -20 36 -22 106 -4 87 -5 89 -39 118 -19 17 -56 43 -81 60 -52 32 -59
51 -59 149 0 56 2 60 48 107 26 27 54 63 61 80 11 27 18 31 63 36 60 7 128 45
162 90 99 130 115 335 28 365 -30 10 -89 5 -98 -9 -10 -17 -24 -9 -24 15 0 18
-7 25 -31 30 -32 6 -210 5 -306 -1z m447 -112 c16 -31 12 -106 -10 -164 -28
-74 -81 -134 -132 -147 -22 -6 -42 -9 -45 -6 -5 5 61 276 77 314 8 18 17 22
54 22 35 0 48 -5 56 -19z m-292 -923 l-3 -53 -126 -3 -127 -3 -6 46 c-4 25 -4
49 -1 55 4 6 60 10 136 10 l130 0 -3 -52z"/>
<path d="M9375 8833 c-16 -3 -33 -10 -37 -16 -14 -23 -20 -134 -8 -156 6 -12
14 -72 16 -134 5 -105 5 -111 -11 -96 -19 19 -60 139 -101 294 -25 96 -29 105
-51 105 -18 0 -23 -5 -23 -27 l0 -27 -21 23 c-18 19 -29 22 -61 18 -84 -11
-113 -82 -84 -198 37 -141 148 -258 248 -259 19 0 35 -12 60 -42 18 -24 53
-61 77 -84 l44 -40 5 -86 4 -85 -44 -31 c-24 -17 -51 -38 -58 -48 -8 -9 -32
-27 -52 -40 l-38 -24 0 -94 0 -94 -31 -7 c-25 -6 -30 -11 -27 -33 l3 -27 293
0 c217 0 296 3 304 12 15 19 -1 52 -28 59 -23 6 -24 9 -24 95 0 84 -1 89 -26
106 -15 10 -36 27 -48 39 -11 11 -38 30 -59 43 -65 40 -67 44 -67 146 l0 93
49 37 c28 20 59 51 71 70 16 26 31 36 70 45 102 24 171 91 210 203 32 91 22
188 -23 225 -18 15 -72 20 -103 9 -17 -6 -23 -3 -27 13 -5 19 -12 20 -189 19
-100 -1 -196 -4 -213 -6z m97 -98 c8 -18 24 -29 55 -36 25 -7 43 -17 43 -25 0
-8 -4 -14 -8 -14 -5 0 -16 -6 -26 -13 -15 -11 -17 -17 -7 -35 12 -22 11 -22
-27 -16 -31 5 -40 3 -45 -10 -9 -23 -27 -19 -62 10 -17 15 -22 24 -12 20 30
-10 19 18 -14 33 -22 10 -29 19 -27 35 2 16 12 22 43 26 32 4 41 9 43 28 4 30
30 28 44 -3z m-304 -22 c10 -21 25 -60 32 -88 7 -27 21 -79 31 -114 11 -35 19
-69 19 -77 0 -27 -49 -15 -89 22 -61 54 -98 127 -115 222 -7 43 20 72 69 72
30 0 37 -5 53 -37z m712 18 c28 -53 -2 -168 -61 -235 -38 -43 -94 -78 -110
-70 -6 3 66 298 77 315 3 5 23 9 44 9 29 0 42 -5 50 -19z m-262 -938 l-3 -58
-123 2 c-68 2 -128 5 -133 8 -5 4 -9 28 -9 56 l0 49 135 0 136 0 -3 -57z"/>
<path d="M2445 8812 c-6 -4 -16 -19 -22 -34 -8 -19 -25 -31 -53 -39 -52 -16
-65 -31 -48 -58 7 -11 10 -22 7 -25 -2 -3 -38 0 -78 5 -40 6 -76 8 -79 5 -8
-9 18 -89 36 -110 17 -19 151 -86 172 -86 7 0 26 -10 42 -22 l31 -21 18 21
c16 21 23 22 110 15 l93 -6 -22 30 c-27 38 -27 41 -2 73 24 30 26 66 4 74 -9
3 -30 6 -48 6 -44 0 -54 12 -105 133 -19 45 -34 55 -56 39z m63 -218 c12 -8
22 -19 22 -24 0 -21 -63 -80 -85 -80 -29 0 -85 46 -85 69 0 19 25 45 50 54 21
7 71 -3 98 -19z"/>
<path d="M2871 8796 c-9 -10 -9 -16 -1 -21 16 -10 31 7 21 23 -6 10 -10 10
-20 -2z"/>
<path d="M2757 8783 c-15 -15 -6 -33 17 -33 22 0 44 16 35 24 -10 9 -46 15
-52 9z"/>
<path d="M3345 8760 c-10 -11 -45 -27 -77 -36 -83 -24 -207 -123 -208 -166 0
-9 -11 -30 -25 -45 l-24 -28 -1 30 -2 30 -13 -35 c-7 -19 -14 -56 -14 -83 -1
-67 -37 -126 -54 -89 -18 41 3 -88 22 -140 46 -120 139 -215 246 -252 165 -57
350 -12 477 115 203 202 179 533 -48 690 -42 28 -59 31 -98 14 -13 -6 -21 -4
-24 3 -4 14 -72 16 -72 2 0 -5 7 -10 16 -10 26 0 84 -31 118 -63 l31 -29 -40
24 c-22 14 -67 30 -100 36 -36 7 -66 20 -76 32 -16 19 -17 19 -34 0z m129
-110 c47 -23 116 -119 136 -186 7 -23 11 -75 9 -117 -5 -87 -25 -123 -102
-182 -99 -75 -165 -83 -285 -33 -122 50 -162 105 -162 221 0 68 28 181 52 212
11 14 39 35 61 47 119 60 220 73 291 38z"/>
<path d="M3325 8521 c-3 -10 -26 -37 -50 -60 -25 -23 -45 -46 -45 -50 0 -5 10
-30 21 -56 21 -47 22 -91 4 -150 -3 -11 3 -1 14 22 21 45 33 51 110 55 l44 3
18 65 c10 36 18 71 19 77 0 7 -17 21 -39 32 -21 11 -50 34 -64 51 -23 27 -26
28 -32 11z"/>
<path d="M6384 8735 c11 -36 28 -42 34 -11 4 20 -15 46 -33 46 -9 0 -9 -8 -1
-35z"/>
<path d="M472 8718 c-7 -7 -12 -24 -12 -38 0 -51 48 -67 88 -30 26 25 27 29 6
58 -17 24 -62 30 -82 10z"/>
<path d="M1179 8704 c-11 -14 -10 -20 14 -40 33 -28 50 -30 67 -9 10 12 10 21
2 40 -14 30 -62 35 -83 9z m46 -24 c-3 -5 -1 -10 6 -10 7 0 10 -3 6 -6 -10
-10 -39 5 -32 16 3 5 11 10 16 10 6 0 7 -4 4 -10z"/>
<path d="M1677 8693 c-10 -51 66 -78 79 -28 10 39 -2 55 -40 55 -29 0 -34 -4
-39 -27z"/>
<path d="M1807 8713 c-4 -3 -7 -17 -7 -30 0 -21 4 -24 28 -21 21 2 28 9 30 31
3 23 0 27 -21 27 -13 0 -27 -3 -30 -7z"/>
<path d="M655 8690 c-7 -23 10 -50 31 -50 18 0 35 34 28 54 -9 24 -51 20 -59
-4z"/>
<path d="M960 8685 c0 -15 4 -24 10 -20 6 3 10 12 10 20 0 8 -4 17 -10 20 -6
4 -10 -5 -10 -20z"/>
<path d="M7053 8693 c9 -9 19 -14 23 -11 10 10 -6 28 -24 28 -15 0 -15 -1 1
-17z"/>
<path d="M820 8680 c0 -10 9 -24 20 -30 18 -10 20 -8 20 20 0 23 -4 30 -20 30
-13 0 -20 -7 -20 -20z"/>
<path d="M900 8688 c0 -28 13 -58 24 -58 8 0 12 14 12 35 -1 26 -5 35 -18 35
-10 0 -18 -6 -18 -12z"/>
<path d="M5127 8683 c-4 -3 -7 -11 -7 -17 0 -6 5 -5 12 2 6 6 9 14 7 17 -3 3
-9 2 -12 -2z"/>
<path d="M6323 8615 c5 -13 69 -13 74 0 2 7 -13 11 -37 10 -22 0 -38 -4 -37
-10z"/>
<path d="M4085 8547 c-4 -10 -5 -21 -1 -24 10 -10 18 4 13 24 -4 17 -4 17 -12
0z"/>
<path d="M8576 8545 c-21 -22 -30 -55 -17 -68 6 -6 11 -24 11 -39 0 -25 3 -28
35 -28 30 0 35 3 35 23 0 12 7 35 15 51 14 26 14 31 0 52 -18 27 -56 32 -79 9z"/>
<path d="M4990 8530 c0 -11 5 -20 10 -20 6 0 10 9 10 20 0 11 -4 20 -10 20 -5
0 -10 -9 -10 -20z"/>
<path d="M6744 8502 c-26 -23 -64 -45 -100 -56 -63 -19 -116 -48 -150 -81 -29
-27 -54 -125 -55 -217 -2 -109 29 -157 156 -242 67 -45 85 -53 113 -49 23 4
39 0 52 -12 11 -10 20 -13 20 -7 0 7 29 26 64 43 67 32 106 65 142 114 18 26
23 28 37 16 19 -15 47 -8 47 11 0 10 -2 10 -9 -1 -16 -24 -30 -2 -24 37 9 60
21 75 54 70 20 -3 29 0 29 9 0 8 -12 13 -30 13 l-30 0 0 73 c0 79 -17 117 -90
200 -30 34 -156 118 -177 117 -4 -1 -27 -18 -49 -38z m-64 -83 c-81 -29 -121
-51 -135 -74 -16 -24 -31 -77 -17 -57 7 10 11 7 14 -13 6 -32 -1 -65 -13 -65
-5 0 -9 -7 -9 -15 0 -19 -21 -65 -31 -65 -13 0 -21 78 -14 132 13 94 117 175
225 177 33 0 32 -1 -20 -20z m128 -84 c49 -21 74 -57 80 -115 10 -111 -51
-198 -146 -208 -42 -4 -53 0 -92 30 -25 18 -58 55 -74 82 -29 46 -29 50 -18
102 20 98 70 139 160 129 28 -3 69 -12 90 -20z"/>
<path d="M6663 8285 c-39 -17 -53 -42 -53 -95 0 -34 6 -48 33 -75 44 -44 99
-59 139 -39 109 56 76 225 -45 224 -23 -1 -56 -7 -74 -15z m57 -24 c0 -5 9 -7
20 -4 30 8 50 -15 50 -58 0 -50 -36 -79 -80 -62 -23 9 -27 8 -23 -3 3 -8 0
-14 -6 -14 -12 0 -29 36 -38 81 -4 19 1 33 16 48 21 21 61 29 61 12z"/>
<path d="M2067 8500 c-46 -36 -47 -106 -3 -129 60 -33 152 89 104 137 -19 19
-73 14 -101 -8z"/>
<path d="M475 8460 c-24 -27 -22 -66 5 -96 30 -31 53 -31 79 2 27 35 27 65 -2
92 -29 27 -58 28 -82 2z m55 -34 c0 -16 -18 -31 -27 -22 -8 8 5 36 17 36 5 0
10 -6 10 -14z"/>
<path d="M1185 8458 c-27 -23 -27 -24 -13 -73 25 -85 67 -87 95 -6 14 41 13
46 -5 70 -26 35 -44 37 -77 9z m45 -48 c0 -5 -7 -7 -15 -4 -8 4 -12 10 -9 15
6 11 24 2 24 -11z"/>
<path d="M1465 8455 c-15 -14 -25 -36 -25 -53 0 -35 40 -82 70 -82 12 0 32 12
45 26 28 30 33 49 11 41 -10 -4 -13 -1 -9 9 3 7 9 14 14 14 16 0 10 29 -11 50
-27 27 -66 25 -95 -5z m12 -47 c-3 -8 -6 -5 -6 6 -1 11 2 17 5 13 3 -3 4 -12
1 -19z"/>
<path d="M670 8437 c0 -40 10 -46 30 -21 11 13 10 19 -8 37 l-22 21 0 -37z"/>
<path d="M870 8425 c0 -3 12 -10 26 -15 19 -8 24 -15 19 -30 -8 -26 1 -26 15
-1 7 15 6 23 -6 35 -14 15 -54 23 -54 11z"/>
<path d="M4030 8420 c0 -5 11 -10 25 -10 14 0 25 5 25 10 0 6 -11 10 -25 10
-14 0 -25 -4 -25 -10z"/>
<path d="M5037 8424 c-11 -12 -8 -59 6 -78 11 -16 14 -14 36 15 18 24 21 36
14 48 -11 17 -44 26 -56 15z"/>
<path d="M1720 8405 c-10 -12 -8 -18 11 -35 42 -34 57 -25 43 28 -7 25 -36 29
-54 7z"/>
<path d="M840 8399 c0 -5 5 -7 10 -4 6 3 10 8 10 11 0 2 -4 4 -10 4 -5 0 -10
-5 -10 -11z"/>
<path d="M4540 8394 c0 -9 5 -14 12 -12 18 6 21 28 4 28 -9 0 -16 -7 -16 -16z"/>
<path d="M872 8354 c10 -10 20 -15 24 -12 3 4 -5 12 -18 18 -22 12 -22 12 -6
-6z"/>
<path d="M1776 8341 c-3 -5 -16 -7 -29 -4 -19 4 -20 3 -4 -7 19 -12 57 -5 57
11 0 12 -17 12 -24 0z"/>
<path d="M5167 8158 c-5 -40 -3 -56 9 -68 13 -13 16 -13 24 0 5 8 8 22 5 30
-2 8 -7 32 -11 53 -9 52 -20 46 -27 -15z"/>
<path d="M2578 8173 c12 -16 29 -36 38 -44 59 -49 93 -159 74 -242 -22 -91
-55 -140 -122 -180 -33 -20 -66 -46 -72 -59 -6 -12 -23 -28 -36 -35 -39 -20
-6 -15 55 8 78 29 155 102 190 181 24 52 29 77 29 144 0 68 -4 89 -28 138 -28
57 -71 95 -125 111 l-24 7 21 -29z"/>
<path d="M9828 8193 c-19 -5 -25 -48 -8 -58 6 -3 10 3 10 14 0 11 4 22 9 25
14 9 41 -4 41 -20 0 -8 5 -14 10 -14 18 0 11 39 -9 50 -20 10 -25 11 -53 3z"/>
<path d="M463 8165 c-8 -9 -9 -16 -3 -20 6 -3 10 -35 10 -70 0 -35 5 -67 10
-70 6 -4 10 22 10 70 l0 76 123 -3 122 -3 0 -44 0 -43 -57 -18 c-32 -10 -81
-32 -108 -50 -48 -31 -52 -32 -64 -15 -11 15 -18 16 -42 7 -28 -10 -28 -10 -4
-11 46 -2 52 -13 31 -57 -11 -23 -25 -63 -32 -90 -6 -27 -18 -54 -26 -61 -13
-10 -12 -12 0 -20 15 -8 77 -151 77 -178 0 -7 -8 -20 -17 -27 -13 -10 -19 -31
-22 -80 -1 -38 1 -68 6 -68 4 0 10 28 11 63 4 87 17 98 79 60 26 -16 78 -42
115 -57 l68 -29 62 23 c35 13 77 34 95 47 18 14 36 22 41 19 5 -3 16 2 24 12
19 21 85 168 92 205 5 22 12 27 37 27 l30 0 -3 -92 -3 -93 -40 -6 -40 -5 40
-5 40 -4 0 -82 c0 -46 4 -83 9 -83 8 0 10 50 15 298 l1 72 110 0 110 0 0 -90
0 -90 -67 -2 -68 -1 65 -6 65 -6 3 -73 c2 -46 -2 -79 -9 -88 -10 -12 -4 -14
37 -13 29 1 38 4 22 6 -28 4 -28 4 -28 89 l0 84 110 0 110 0 6 -26 c4 -14 4
-52 1 -84 -4 -35 -3 -62 3 -65 6 -4 10 29 11 87 1 257 3 283 22 282 9 0 60 -1
112 -2 l96 -2 -3 -87 -3 -88 -100 -5 -100 -6 100 -4 100 -5 3 -87 c1 -49 6
-88 10 -88 4 0 7 175 7 390 0 253 -4 390 -10 390 -6 0 -10 -40 -11 -97 0 -54
-1 -145 -2 -202 l-1 -104 -53 6 c-29 4 -79 7 -110 7 l-58 0 3 187 2 188 30 6
c22 5 24 7 8 8 -12 0 -28 4 -37 7 -15 6 -16 1 -27 -301 l-4 -100 -107 -3 -108
-3 0 95 0 95 33 4 c31 4 31 4 -6 5 l-38 2 3 88 3 87 90 5 90 4 -95 6 c-52 3
-144 3 -205 0 l-110 -5 105 -5 105 -5 3 -187 2 -188 -104 0 c-58 0 -107 3
-109 8 -3 4 -7 45 -8 92 l-4 85 70 6 70 5 -72 2 c-61 2 -73 5 -73 19 0 16 -1
16 -12 0 -10 -11 -31 -16 -78 -18 -54 -1 -76 4 -129 29 -35 17 -86 36 -113 43
l-49 13 2 51 3 50 -134 3 c-73 1 -138 7 -144 11 -7 5 -16 4 -23 -4z m279 -242
c1 -60 3 -89 5 -65 2 23 7 42 11 42 4 0 24 -4 44 -9 21 -5 36 -5 33 -1 -3 4
-21 11 -40 14 l-35 7 0 61 0 60 38 -6 c50 -9 126 -49 130 -68 3 -16 -40 -65
-73 -84 -18 -10 -17 -11 12 -10 17 0 31 3 30 6 -4 12 53 71 63 65 18 -11 58
-90 65 -127 l7 -38 -41 0 c-22 0 -41 -4 -41 -10 0 -5 21 -10 46 -10 l47 0 -7
-32 c-7 -35 -65 -158 -75 -158 -3 0 -13 12 -22 28 -9 15 -38 42 -65 61 l-49
33 42 -41 c24 -23 50 -55 58 -71 15 -28 14 -30 -18 -53 -34 -25 -107 -57 -132
-57 -11 0 -14 18 -14 90 0 50 -3 112 -7 137 -6 40 -5 45 10 40 10 -4 16 -1 16
8 0 9 16 16 48 20 71 10 73 13 10 14 -32 1 -58 5 -58 10 0 4 11 20 25 35 37
40 30 45 -9 7 -19 -18 -39 -30 -45 -27 -6 4 -11 2 -11 -4 0 -6 -40 28 -89 77
-64 63 -86 91 -79 100 17 21 111 63 140 63 l28 0 2 -107z m386 -55 l-3 -93
-31 -3 c-30 -3 -32 -1 -43 44 -7 26 -23 66 -37 89 -13 23 -24 45 -24 48 0 4
32 7 70 7 l71 0 -3 -92z m-467 -29 c33 -31 59 -61 59 -67 0 -9 -37 -12 -125
-12 l-125 0 0 24 c0 29 35 114 57 138 15 16 17 16 46 -5 16 -12 56 -47 88 -78z
m949 -169 l0 -90 -108 0 c-60 0 -111 2 -113 4 -2 2 -3 43 -1 90 l3 86 110 0
109 0 0 -90z m-900 69 c0 -5 6 -8 13 -6 8 1 13 -21 17 -76 3 -42 4 -81 2 -85
-1 -4 -35 -7 -75 -6 l-72 2 73 -10 72 -11 0 -43 c0 -24 -4 -44 -10 -44 -38 0
-160 70 -160 93 0 5 29 42 65 82 36 40 65 75 65 78 0 3 -35 -29 -77 -70 -87
-85 -86 -86 -123 14 -29 78 -28 81 33 85 113 7 177 5 177 -3z"/>
<path d="M788 7553 c7 -3 16 -2 19 1 4 3 -2 6 -13 5 -11 0 -14 -3 -6 -6z"/>
<path d="M878 8160 c-48 -3 -90 -9 -95 -14 -4 -5 16 -6 47 -2 30 3 95 6 144 6
49 0 86 3 82 7 -9 9 -62 10 -178 3z"/>
<path d="M1106 8161 c-4 -5 -2 -12 4 -16 5 -3 10 -34 10 -67 0 -82 8 -70 11
16 2 43 -2 71 -8 73 -6 2 -14 0 -17 -6z"/>
<path d="M8487 8140 c-66 -26 -77 -37 -77 -81 0 -43 21 -69 56 -69 13 0 24 -6
24 -13 0 -15 -43 -77 -66 -94 -20 -15 -12 -28 28 -49 21 -11 68 -18 146 -21
129 -5 144 1 182 62 19 31 22 46 18 106 -6 77 -39 139 -89 165 -41 20 -163 17
-222 -6z m52 -54 c17 -20 -12 -46 -50 -46 -33 0 -37 15 -12 42 19 21 46 23 62
4z m156 -36 c26 -29 33 -121 10 -143 -20 -20 -26 -21 -48 -4 -24 17 -32 80
-17 128 15 44 28 48 55 19z m-135 -140 c0 -20 -5 -30 -15 -30 -18 0 -18 2 -3
35 15 32 18 32 18 -5z"/>
<path d="M4423 8139 c-34 -10 -53 -43 -35 -61 8 -8 19 -6 36 6 42 27 96 16 96
-20 0 -6 -31 -35 -70 -65 -112 -85 -108 -109 21 -109 87 0 89 0 89 24 0 19 -7
25 -34 30 -19 4 -46 4 -60 0 -22 -5 -26 -3 -26 16 0 19 4 21 28 15 15 -3 37
-9 49 -12 15 -3 25 2 33 18 39 72 29 132 -26 155 -38 16 -55 16 -101 3z"/>
<path d="M2440 8135 c0 -3 16 -19 35 -36 29 -25 35 -38 35 -69 l0 -38 -44 1
c-56 2 -97 -25 -102 -68 -2 -17 -5 -38 -6 -49 -6 -37 96 -85 138 -64 11 6 8 1
-6 -11 -14 -11 -29 -21 -33 -21 -5 0 -24 -7 -43 -16 -43 -21 -70 -13 -116 32
-21 20 -38 32 -38 27 0 -12 69 -78 95 -91 11 -5 48 -13 82 -17 57 -6 67 -4
107 19 54 31 101 100 117 170 12 56 12 56 -61 154 -30 41 -97 82 -133 82 -15
0 -27 -2 -27 -5z"/>
<path d="M4238 8124 c-19 -10 -28 -23 -28 -39 0 -26 15 -41 25 -25 18 29 26 3
24 -82 l-2 -93 33 -3 33 -3 -6 38 c-4 21 -7 80 -7 131 0 89 -1 92 -22 92 -13
-1 -35 -8 -50 -16z"/>
<path d="M4660 8120 c-23 -23 -27 -82 -7 -98 24 -20 63 -24 76 -8 8 9 19 16
26 16 19 0 37 -53 29 -84 -7 -30 -5 -30 -83 -1 -58 21 -77 6 -40 -31 20 -20
39 -27 85 -31 71 -6 81 2 90 71 6 42 4 50 -22 77 -26 27 -34 30 -69 25 -23 -3
-49 -8 -58 -12 -12 -4 -17 -1 -17 14 0 28 22 43 72 46 92 5 84 36 -9 36 -40 0
-58 -5 -73 -20z"/>
<path d="M6133 8069 c-13 -35 -10 -50 8 -32 6 6 9 23 7 38 l-3 28 -12 -34z"/>
<path d="M8054 8078 c-3 -4 4 -8 15 -8 12 0 21 4 21 8 0 5 -7 9 -15 9 -9 0
-18 -4 -21 -9z"/>
<path d="M5180 8000 c0 -16 5 -30 10 -30 6 0 10 14 10 30 0 17 -4 30 -10 30
-5 0 -10 -13 -10 -30z"/>
<path d="M3867 7975 c9 -27 66 -115 71 -110 5 4 -37 78 -62 110 l-16 20 7 -20z"/>
<path d="M1478 7963 c12 -2 30 -2 40 0 9 3 -1 5 -23 4 -22 0 -30 -2 -17 -4z"/>
<path d="M1738 7963 c7 -3 16 -2 19 1 4 3 -2 6 -13 5 -11 0 -14 -3 -6 -6z"/>
<path d="M5174 7924 c3 -9 6 -23 6 -32 0 -10 3 -13 10 -6 11 11 2 54 -12 54
-6 0 -7 -7 -4 -16z"/>
<path d="M5663 7920 c-36 -14 -30 -56 10 -80 17 -11 36 -20 40 -20 14 0 67 58
67 73 0 29 -71 45 -117 27z m71 -16 c19 -18 19 -20 6 -45 -14 -26 -56 -25 -70
2 -9 16 -8 25 6 40 21 23 37 24 58 3z"/>
<path d="M2231 7903 c-1 -18 19 -67 25 -61 3 3 -2 21 -10 39 -8 19 -15 29 -15
22z"/>
<path d="M5476 7903 c-12 -12 -6 -43 9 -43 8 0 15 9 15 19 0 21 -13 34 -24 24z"/>
<path d="M7155 7819 c-7 -10 10 -28 28 -29 12 0 8 17 -7 29 -11 9 -16 9 -21 0z"/>
<path d="M2897 7813 c-4 -3 -7 -13 -7 -20 0 -12 14 -13 73 -7 79 7 88 11 67
24 -17 11 -123 13 -133 3z"/>
<path d="M6007 7814 c-13 -13 -7 -24 14 -24 11 0 19 5 17 12 -5 14 -22 21 -31
12z"/>
<path d="M6765 7790 c-3 -5 -2 -10 4 -10 5 0 13 5 16 10 3 6 2 10 -4 10 -5 0
-13 -4 -16 -10z"/>
<path d="M5178 7713 c7 -3 16 -2 19 1 4 3 -2 6 -13 5 -11 0 -14 -3 -6 -6z"/>
<path d="M8127 7543 c-10 -9 -9 -41 2 -47 4 -3 8 8 7 24 -1 17 -1 30 -2 30 0
0 -4 -3 -7 -7z"/>
<path d="M3594 7489 c-4 -7 -25 -222 -21 -224 1 -1 47 2 102 8 72 6 108 15
127 29 32 22 36 53 11 80 -15 17 -15 19 0 36 24 26 21 49 -7 68 -20 12 -45 15
-116 12 -51 -2 -94 -6 -96 -9z m163 -39 c5 -25 -12 -41 -50 -49 -41 -10 -54
-4 -57 24 -5 44 -2 46 52 43 38 -2 54 -7 55 -18z m1 -82 c34 -34 -3 -64 -83
-70 -27 -2 -40 1 -39 10 1 6 2 21 3 32 2 34 92 55 119 28z"/>
<path d="M3975 7484 c-50 -25 -95 -75 -95 -104 0 -72 150 -137 226 -97 73 39
91 84 58 152 -28 59 -123 84 -189 49z m113 -40 c53 -37 48 -97 -10 -128 -61
-33 -128 4 -128 70 0 61 84 96 138 58z"/>
<path d="M3389 7466 c-2 -3 -30 -6 -60 -8 l-57 -3 -6 -62 c-4 -35 -10 -73 -15
-86 -4 -12 -11 -34 -15 -49 -6 -26 -4 -28 24 -28 31 0 34 3 44 52 4 18 15 30
30 34 38 9 61 -3 79 -41 17 -36 34 -44 54 -24 9 9 8 22 -4 51 l-16 40 32 28
c37 34 40 63 9 84 -20 15 -88 22 -99 12z m56 -35 c3 -5 0 -21 -6 -35 -12 -26
-58 -46 -108 -46 -21 0 -23 3 -17 33 3 17 14 38 23 45 19 14 99 16 108 3z"/>
<path d="M4283 7445 c-57 -25 -68 -71 -28 -125 43 -59 100 -90 163 -90 48 0
58 4 88 34 45 45 45 82 3 131 -18 20 -45 43 -60 51 -35 18 -124 18 -166 -1z
m169 -55 c25 -26 29 -36 24 -62 -9 -46 -24 -58 -68 -58 -32 0 -47 7 -74 34
-59 59 -37 116 43 116 36 0 50 -6 75 -30z"/>
<path d="M2965 7297 c-47 -63 -85 -119 -85 -126 0 -16 30 0 67 37 23 23 40 30
91 35 57 6 66 5 81 -14 25 -31 54 -16 46 25 -9 42 -42 116 -62 138 -31 35 -50
21 -138 -95z m114 27 c7 -26 11 -48 9 -49 -9 -7 -100 -15 -96 -8 10 23 64 102
69 103 4 0 12 -21 18 -46z"/>
<path d="M4580 7302 c0 -86 3 -112 15 -122 20 -16 23 -13 33 36 12 57 42 59
79 3 32 -47 145 -169 158 -169 4 0 0 9 -10 20 -9 10 -28 42 -41 70 -13 29 -33
64 -44 80 -29 41 -25 57 20 80 22 11 40 25 40 30 0 21 -52 22 -106 1 -79 -30
-82 -29 -86 27 -3 43 -5 47 -30 50 l-28 3 0 -109z"/>
<path d="M9245 7402 c-17 -6 -19 -12 -14 -37 l7 -30 1 28 c1 25 21 40 21 15 0
-6 11 -26 26 -45 49 -65 57 -98 62 -271 l5 -162 -28 -28 c-15 -15 -31 -37 -36
-50 -5 -13 -13 -21 -18 -17 -5 3 -13 -5 -17 -17 -8 -22 -8 -22 -15 7 -4 17 -7
-59 -8 -167 l-1 -198 -70 0 -70 0 0 414 c0 228 -3 417 -8 419 -4 3 -38 3 -75
0 l-69 -6 4 -409 c3 -351 1 -410 -12 -418 -8 -5 -12 -11 -9 -14 3 -4 239 -9
524 -12 431 -5 517 -4 513 8 -3 7 -15 15 -28 16 l-23 4 5 261 c3 144 3 333 0
420 l-5 157 -69 0 -68 0 2 -420 3 -420 -67 0 -68 0 0 278 c0 161 -4 283 -10
292 -7 10 -10 -20 -10 -93 0 -60 -5 -117 -11 -129 -6 -11 -11 -40 -12 -64 0
-28 -6 -48 -14 -53 -8 -4 -19 -34 -24 -67 -6 -32 -13 -75 -16 -94 -6 -39 -21
-63 -34 -54 -5 3 -9 0 -9 -5 0 -7 -25 -11 -63 -11 l-64 0 -6 122 c-4 66 -7
287 -7 490 l0 368 -47 -1 c-27 -1 -57 -4 -68 -7z"/>
<path d="M2780 7349 c-52 -16 -100 -35 -106 -42 -13 -13 -47 -187 -39 -196 5
-5 95 11 168 30 39 10 53 33 15 25 -65 -14 -138 -17 -138 -6 0 38 21 51 123
74 15 4 27 13 27 22 0 10 -6 14 -15 10 -8 -3 -38 -8 -66 -12 -49 -7 -51 -6
-47 17 3 21 13 26 71 40 68 17 117 41 117 59 0 13 3 13 -110 -21z"/>
<path d="M6391 7349 c-52 -5 -97 -11 -99 -13 -5 -5 27 -508 35 -546 5 -26 10
-30 38 -30 18 0 47 3 65 6 l32 7 -7 96 c-8 112 -1 124 62 119 35 -3 43 -10
117 -108 54 -72 87 -107 105 -111 38 -10 121 -10 121 -1 0 4 -13 23 -28 42
-33 40 -142 197 -142 205 0 2 18 14 39 25 55 28 71 54 71 119 0 77 -30 134
-88 168 -40 24 -58 28 -137 29 -49 1 -133 -2 -184 -7z m240 -118 c47 -48 36
-111 -23 -130 -61 -18 -153 -24 -165 -9 -11 14 -24 154 -15 163 3 3 43 5 89 5
80 0 86 -2 114 -29z"/>
<path d="M6900 7337 c0 -12 9 -108 20 -212 11 -105 20 -218 20 -251 0 -34 3
-75 6 -91 l6 -30 136 -12 c278 -26 283 -26 322 1 31 21 35 29 38 75 4 63 -29
134 -83 182 l-37 32 26 24 c22 20 26 33 26 77 0 125 -87 178 -353 213 -65 8
-120 15 -123 15 -2 0 -4 -10 -4 -23z m290 -120 c59 -29 78 -62 59 -103 -15
-29 -15 -29 -99 -27 -54 2 -86 7 -92 15 -9 16 -11 132 -1 141 11 11 85 -4 133
-26z m48 -241 c39 -20 82 -72 82 -98 0 -39 -28 -58 -84 -58 -60 1 -134 14
-146 26 -4 5 -11 42 -15 83 l-7 74 70 -6 c39 -3 84 -13 100 -21z"/>
<path d="M6151 7317 c-40 -11 -47 -18 -87 -87 -25 -41 -56 -99 -71 -127 -15
-29 -30 -53 -33 -53 -4 0 -28 30 -53 68 -26 37 -58 80 -72 95 l-25 28 -57 -21
c-79 -30 -79 -28 -40 -69 30 -31 155 -197 183 -241 5 -8 11 -62 14 -120 6
-118 3 -115 89 -86 l34 11 1 125 1 125 44 70 c42 65 161 281 161 291 0 7 -43
3 -89 -9z"/>
<path d="M2535 7253 l-56 -58 -28 33 c-23 27 -33 32 -55 26 -34 -8 -33 -17 9
-68 29 -36 35 -51 35 -90 0 -32 4 -46 14 -46 20 0 32 19 45 67 12 43 33 73 97
137 35 35 38 56 8 56 -8 0 -39 -26 -69 -57z"/>
<path d="M7490 7268 c0 -23 54 -346 86 -520 18 -95 15 -92 98 -103 l49 -7 -7
64 c-4 35 -10 72 -12 84 -4 16 5 29 37 55 26 20 44 29 46 22 3 -7 49 -78 103
-159 l99 -148 73 -17 c40 -10 75 -16 77 -14 3 4 -46 74 -222 319 -31 43 -57
86 -57 95 0 10 12 28 26 42 14 13 53 56 85 96 l59 72 -66 21 c-36 11 -71 20
-78 19 -6 0 -54 -47 -106 -103 -52 -57 -98 -100 -101 -97 -4 3 -17 62 -30 131
-12 69 -27 128 -33 133 -6 4 -29 12 -51 18 -22 5 -48 12 -57 15 -14 4 -18 0
-18 -18z"/>
<path d="M8760 7280 c0 -5 5 -10 10 -10 6 0 10 5 10 10 0 6 -4 10 -10 10 -5 0
-10 -4 -10 -10z"/>
<path d="M8790 7270 c0 -15 5 -20 18 -18 9 2 17 10 17 18 0 8 -8 16 -17 18
-13 2 -18 -3 -18 -18z"/>
<path d="M750 7270 c0 -9 -33 -11 -127 -10 -186 3 -211 2 -193 -10 8 -5 27
-10 43 -10 l27 0 0 -90 c0 -73 -3 -90 -15 -90 -8 0 -15 -4 -15 -10 0 -5 9 -10
21 -10 20 0 21 -5 18 -80 -2 -43 -1 -82 2 -85 8 -7 17 97 14 150 -1 22 -4 81
-6 130 l-4 90 116 3 116 3 5 -133 c3 -73 3 -163 0 -200 l-5 -67 -101 -4 -101
-3 103 -2 102 -2 0 -106 0 -107 -52 7 c-29 3 -79 6 -111 6 l-58 0 2 108 c1 74
-2 107 -10 106 -6 -1 -26 -2 -43 -3 -31 -3 -32 -3 -8 -10 22 -6 25 -13 28 -61
2 -30 1 -74 -3 -97 -5 -37 -10 -43 -31 -43 -33 0 -30 -20 4 -21 15 -1 84 0
155 1 l127 2 0 -96 0 -96 -124 0 c-110 0 -125 2 -129 18 -4 16 -5 16 -6 0 -1
-14 -10 -18 -45 -18 -44 0 -68 -13 -43 -23 8 -3 233 -4 502 -4 381 2 489 5
492 15 4 9 -16 12 -77 12 l-81 0 3 96 3 97 98 -2 c68 -2 97 1 92 8 -3 7 -45
11 -101 11 l-94 0 0 100 0 99 98 4 97 3 -98 2 -98 2 2 206 2 206 -233 -1
c-162 -1 -237 2 -246 10 -11 9 -14 9 -14 -1z m196 -30 l43 0 1 -195 0 -195
-110 0 -110 0 0 193 c0 107 3 197 8 201 4 5 34 5 66 2 32 -3 78 -6 102 -6z
m276 -55 c4 -33 5 -168 2 -300 -3 -132 -6 -289 -7 -348 l-2 -108 -101 -5 -101
-4 -6 45 c-4 25 -4 72 0 105 l6 59 96 4 96 3 -103 2 -103 2 3 98 3 97 100 5
100 4 -100 6 -100 5 -2 187 c-1 163 0 189 14 197 9 5 57 8 107 7 l91 -1 7 -60z
m-232 -445 l0 -100 -109 0 -110 0 -3 96 c-2 53 -1 98 1 100 2 2 53 4 113 4
l108 0 0 -100z m-473 -67 c-2 -21 -4 -4 -4 37 0 41 2 58 4 38 2 -21 2 -55 0
-75z m471 -145 l3 -98 -58 -1 c-32 0 -82 -2 -110 -5 -39 -4 -53 -2 -54 8 -2
40 3 183 7 189 2 4 50 6 106 5 l103 -1 3 -97z"/>
<path d="M818 7053 c7 -3 16 -2 19 1 4 3 -2 6 -13 5 -11 0 -14 -3 -6 -6z"/>
<path d="M1293 7253 c20 -2 54 -2 75 0 20 2 3 4 -38 4 -41 0 -58 -2 -37 -4z"/>
<path d="M1570 7161 c0 -5 5 -13 10 -16 6 -3 10 -2 10 4 0 5 -4 13 -10 16 -5
3 -10 2 -10 -4z"/>
<path d="M4531 7150 c86 -26 115 -33 104 -22 -10 10 -132 43 -151 41 -5 0 16
-9 47 -19z"/>
<path d="M3814 7126 c-39 -17 -74 -61 -74 -95 -1 -14 -7 -37 -15 -51 -21 -36
-19 -46 16 -81 30 -31 32 -43 13 -93 -7 -19 69 -96 95 -96 9 0 40 16 68 35 29
19 55 30 58 25 11 -17 -23 -66 -64 -93 -22 -15 -47 -40 -55 -56 l-16 -29 113
-7 c61 -4 132 -5 157 -3 l45 3 3 44 c4 56 -17 79 -110 123 -101 47 -123 99
-55 129 l32 14 1 85 c0 47 -3 93 -8 103 -26 51 -133 73 -204 43z"/>
<path d="M8215 7103 c22 -101 41 -165 60 -203 26 -52 50 -145 41 -159 -8 -13
18 -143 43 -214 11 -31 29 -108 40 -170 12 -61 32 -145 46 -185 14 -41 25 -86
25 -101 0 -28 49 -273 56 -280 13 -13 1 143 -16 209 -11 44 -31 134 -44 202
-13 68 -40 177 -59 243 -20 66 -38 140 -42 165 -11 75 -44 209 -80 325 -19 61
-38 125 -43 144 -8 35 -34 58 -27 24z"/>
<path d="M4748 7093 c7 -3 16 -2 19 1 4 3 -2 6 -13 5 -11 0 -14 -3 -6 -6z"/>
<path d="M3130 7069 c-74 -30 -131 -112 -162 -234 -7 -27 -23 -63 -36 -79 -18
-22 -23 -38 -19 -61 5 -29 2 -33 -28 -44 -19 -6 -47 -24 -63 -40 -32 -29 -58
-99 -43 -114 5 -5 73 4 163 21 84 17 218 40 298 52 79 12 152 26 162 31 24 13
24 70 1 92 -10 8 -40 21 -68 28 -71 17 -105 36 -105 59 0 25 15 25 40 0 11
-11 27 -20 37 -20 14 0 15 12 9 118 -9 159 -12 171 -52 188 -38 16 -98 17
-134 3z m100 -340 c0 -6 -27 -39 -60 -73 -33 -35 -60 -70 -60 -79 0 -10 -6
-17 -14 -17 -9 0 -12 8 -9 24 4 18 -3 29 -26 45 -24 18 -31 30 -31 57 0 34 13
46 23 20 3 -7 18 -23 34 -34 l29 -21 55 44 c61 50 59 49 59 34z"/>
<path d="M8311 7064 c-1 -24 38 -183 50 -204 11 -20 2 32 -27 140 -12 47 -23
76 -23 64z"/>
<path d="M1303 7053 c26 -2 68 -2 95 0 26 2 4 3 -48 3 -52 0 -74 -1 -47 -3z"/>
<path d="M4480 7032 c-15 -12 -24 -33 -27 -65 -3 -26 -10 -50 -14 -53 -19 -11
-8 -56 19 -82 36 -33 44 -55 33 -85 -7 -19 0 -32 50 -85 l58 -62 46 22 c48 23
51 28 34 59 -15 28 -3 55 31 69 16 6 31 17 33 23 2 7 -1 51 -7 99 -13 97 -30
124 -98 159 -48 25 -128 25 -158 1z"/>
<path d="M8576 7041 c-3 -4 -1 -23 4 -42 6 -19 10 -45 10 -59 0 -24 -1 -23
-21 10 -11 19 -28 41 -37 48 -23 18 -62 15 -62 -4 0 -24 36 -178 80 -339 21
-77 49 -185 62 -240 14 -55 53 -210 87 -345 34 -135 118 -470 187 -745 69
-275 141 -556 159 -625 43 -157 170 -657 196 -770 88 -380 159 -679 167 -699
4 -12 -11 -13 -94 -7 -192 13 -481 37 -619 52 -77 9 -216 22 -310 29 -205 17
-562 52 -607 60 -37 6 -531 51 -708 65 -213 16 -708 22 -845 10 -192 -17 -586
-85 -636 -110 -23 -12 -38 -16 -34 -10 4 7 28 22 54 34 25 12 57 29 71 38 14
9 63 23 110 31 47 9 150 30 230 47 136 29 163 31 425 37 329 7 576 -5 948 -47
144 -16 344 -36 444 -45 100 -9 203 -22 230 -30 80 -24 178 -35 383 -45 127
-6 242 -17 330 -34 166 -30 278 -44 395 -50 50 -3 117 -8 150 -11 41 -3 52 -2
35 4 -49 17 -127 30 -240 41 -320 31 -507 56 -496 67 2 2 39 -1 82 -6 44 -6
124 -11 179 -12 129 -1 131 -1 119 10 -14 15 -160 30 -399 41 -234 10 -613 37
-624 44 -4 3 -70 12 -147 20 -76 9 -188 23 -249 31 -571 75 -1227 100 -1450
55 -49 -10 -128 -23 -175 -30 -47 -6 -98 -17 -115 -24 -16 -8 -76 -27 -132
-42 -56 -15 -101 -31 -100 -36 1 -5 -21 -17 -48 -27 -28 -10 -62 -23 -75 -30
-18 -8 -13 -1 15 25 42 39 41 40 -32 19 -14 -5 -14 -4 2 4 63 31 276 121 310
130 361 99 736 118 1270 67 88 -9 207 -16 265 -16 58 0 123 -5 145 -10 126
-31 293 -54 470 -65 61 -4 155 -14 210 -21 286 -41 685 -66 685 -43 0 5 3 8 8
6 4 -3 36 -8 71 -11 35 -3 67 -9 72 -12 5 -3 12 2 15 10 5 12 11 13 24 6 29
-16 80 -12 80 5 0 8 -9 15 -20 15 -11 0 -20 -5 -20 -12 0 -7 -5 -5 -12 4 -9
11 -35 18 -78 21 -89 7 -284 35 -329 46 -20 6 -108 22 -196 36 -88 14 -189 32
-225 40 -66 14 -208 35 -420 61 -63 8 -167 21 -230 29 -63 8 -185 21 -270 30
-85 8 -191 20 -235 26 -230 32 -596 39 -775 15 -344 -47 -649 -127 -712 -189
-15 -15 -146 -52 -155 -44 -3 3 23 19 58 35 35 16 70 36 77 45 18 21 250 112
338 132 38 9 96 22 129 30 195 47 699 60 1000 26 94 -11 213 -22 265 -26 164
-11 299 -26 465 -52 88 -13 206 -31 263 -39 56 -7 169 -27 250 -44 491 -100
832 -145 832 -110 0 15 -8 17 -200 45 -192 27 -296 47 -530 99 -85 19 -182 37
-215 41 -124 13 -284 36 -314 45 -17 5 -149 22 -293 39 -145 17 -299 38 -343
46 -44 8 -177 19 -295 26 -118 6 -223 15 -233 21 -31 16 -350 -3 -449 -27 -23
-6 -26 -5 -21 14 7 26 15 28 142 41 180 18 509 10 495 -11 -3 -5 19 -10 48
-11 29 0 64 -2 78 -4 14 -1 104 -9 200 -18 363 -33 1071 -137 1305 -192 251
-59 553 -95 563 -66 2 6 -12 13 -30 16 -18 3 -64 10 -103 16 -185 28 -390 63
-528 91 -142 28 -305 59 -507 95 -281 50 -782 109 -1051 125 -179 11 -230 10
-405 -5 -229 -20 -338 -39 -537 -95 -166 -46 -257 -79 -257 -92 0 -5 -6 -9
-12 -9 -26 0 -88 -21 -100 -34 -8 -8 -36 -12 -73 -12 l-60 1 -6 160 c-4 88 -7
490 -8 894 0 404 -4 731 -7 728 -4 -4 -7 -176 -7 -384 -1 -433 -3 -493 -22
-493 -20 0 -26 56 -24 247 1 99 -1 185 -5 191 -4 6 -2 21 4 33 6 11 8 28 5 37
-4 9 -8 33 -9 52 -1 19 -3 53 -4 76 -2 33 -7 43 -28 53 -21 9 -24 14 -14 26 7
8 9 22 6 31 -3 9 -9 87 -12 173 -3 86 -10 160 -15 165 -5 6 -9 52 -9 103 0 72
-3 93 -14 93 -11 0 -13 19 -10 96 3 61 0 101 -7 110 -6 7 -9 44 -8 86 2 66
-10 359 -16 366 -14 17 -21 -3353 -6 -3418 l8 -35 7 33 c8 32 26 45 26 17 0
-26 45 -18 58 10 8 16 17 23 27 19 11 -4 14 -2 9 9 -3 9 2 20 15 26 28 15 31
14 33 -11 1 -13 4 2 8 32 5 38 7 4 8 -105 1 -89 -3 -167 -8 -175 -8 -13 -10
-12 -10 3 0 10 -4 15 -10 12 -5 -3 -10 0 -10 8 0 27 -75 62 -106 50 -8 -3 -14
-12 -14 -20 0 -8 -5 -11 -10 -8 -6 4 -8 10 -5 15 3 4 -2 10 -10 14 -8 3 -18 0
-21 -6 -4 -6 -8 -137 -8 -290 l-1 -278 -27 -25 c-57 -53 -25 -43 48 15 41 33
80 60 85 60 5 0 26 -17 47 -38 20 -20 46 -44 56 -52 17 -14 18 -13 13 5 -4 11
-3 75 2 142 8 121 9 123 46 172 21 28 57 63 79 79 46 31 153 77 206 87 19 4
40 11 46 16 30 24 264 55 475 64 85 4 161 9 168 11 19 6 390 5 646 -2 110 -3
313 -7 450 -9 138 -3 282 -7 320 -9 39 -3 122 -8 185 -11 63 -3 151 -10 195
-16 46 -6 120 -6 175 -2 52 4 136 5 185 0 145 -12 955 -17 998 -6 21 6 51 22
68 37 28 25 31 33 32 97 1 46 -10 123 -32 225 -18 85 -34 162 -35 170 -2 8
-10 40 -19 70 -8 30 -24 93 -36 140 -11 47 -44 171 -72 275 -28 105 -62 237
-75 295 -13 58 -35 139 -49 180 -13 41 -36 120 -49 175 -29 119 -153 589 -245
935 -23 85 -55 211 -71 280 -16 69 -54 217 -85 330 -30 113 -66 255 -80 315
-14 61 -43 169 -65 240 -21 72 -49 173 -61 225 -12 52 -26 103 -31 113 -9 17
-53 24 -62 8z m-3369 -1333 c-2 -13 -4 -3 -4 22 0 25 2 35 4 23 2 -13 2 -33 0
-45z m132 -1230 c-1 -35 -4 -88 -9 -118 -6 -46 -7 -36 -9 63 0 72 3 117 9 117
6 0 10 -27 9 -62z m-2 -420 c-2 -13 -4 -5 -4 17 -1 22 1 32 4 23 2 -10 2 -28
0 -40z m808 -198 c-3 -5 -14 -10 -24 -10 -10 0 -32 -7 -50 -16 -17 -9 -72 -24
-121 -34 -49 -10 -93 -21 -98 -24 -16 -10 -232 -63 -232 -57 0 3 15 16 33 28
35 24 96 41 282 78 66 13 136 28 155 33 49 13 62 14 55 2z m575 -120 c0 -5 3
-9 8 -8 10 3 110 -11 212 -28 47 -8 191 -21 320 -29 129 -9 269 -22 310 -30
123 -23 269 -43 370 -50 96 -7 136 -12 290 -39 47 -8 146 -22 220 -31 74 -9
153 -22 175 -30 22 -7 64 -16 93 -19 29 -4 62 -11 75 -16 19 -8 18 -9 -13 -9
-19 -1 -82 5 -140 14 -201 28 -509 57 -534 51 -15 -3 -26 -3 -26 2 0 12 -120
31 -270 42 -141 11 -209 20 -350 45 -47 8 -157 20 -245 25 -88 6 -226 17 -306
25 -190 19 -509 19 -669 0 -205 -25 -574 -114 -555 -134 4 -3 -51 -25 -122
-48 -178 -59 -181 -44 -8 44 132 67 263 108 489 153 275 55 676 97 676 70z
m-1125 -50 c-22 -24 -95 -29 -95 -6 0 10 14 16 43 19 23 2 48 4 56 5 10 2 9
-3 -4 -18z m462 -86 c-3 -3 -12 -4 -19 -1 -8 3 -5 6 6 6 11 1 17 -2 13 -5z"/>
<path d="M1825 7018 c-8 -20 -65 -26 -65 -7 0 6 -5 9 -12 7 -6 -2 -37 -107
-69 -234 -31 -126 -75 -294 -98 -374 -45 -160 -86 -324 -97 -385 -5 -28 -9
-34 -12 -20 -6 26 -25 -38 -47 -155 -9 -47 -20 -94 -25 -105 -16 -35 -81 -267
-105 -370 -12 -55 -37 -152 -54 -215 -18 -63 -36 -133 -41 -155 -44 -198 -85
-359 -97 -378 -3 -5 -20 -68 -38 -141 -19 -72 -54 -207 -78 -301 -25 -93 -54
-204 -65 -245 -19 -72 -61 -252 -101 -430 -16 -73 -56 -228 -92 -363 -8 -32
-14 -38 -30 -34 -14 4 -21 -1 -26 -21 -10 -42 24 -91 96 -134 59 -37 71 -40
175 -48 157 -13 328 -13 496 0 262 21 400 26 765 29 198 1 377 6 398 11 37 8
230 5 272 -4 11 -3 23 -5 28 -5 4 -1 5 -12 1 -25 -6 -26 3 -66 15 -66 4 0 14
11 21 25 10 20 11 28 2 37 -19 19 -14 30 7 18 13 -7 22 -7 26 0 4 6 12 4 21
-5 20 -20 34 -19 34 1 0 10 6 14 14 11 8 -3 20 1 26 9 23 27 181 11 164 -17
-3 -5 0 -9 6 -9 6 0 8 -5 4 -12 -4 -7 -3 -8 4 -4 7 4 12 14 12 22 0 11 9 13
41 9 22 -3 46 -2 52 2 7 4 39 8 73 9 33 1 69 6 80 11 22 12 42 13 504 19 195
2 364 5 375 6 17 1 159 -6 299 -17 21 -1 42 -8 46 -15 4 -7 13 -9 19 -6 6 4
11 3 11 -1 0 -5 8 -9 18 -10 20 -1 206 -41 243 -52 14 -4 41 -8 60 -7 l34 1 6
95 c4 52 7 215 8 363 l1 267 -24 0 c-13 0 -61 25 -106 56 -84 57 -258 149
-314 165 -186 56 -467 113 -656 135 -183 21 -562 21 -790 0 -155 -14 -238 -26
-535 -76 -66 -11 -191 -32 -279 -46 -274 -44 -619 -115 -703 -144 -28 -10 -95
-25 -150 -34 -54 -9 -120 -21 -146 -26 -27 -6 -59 -10 -73 -10 -13 0 -24 -4
-24 -10 0 -5 21 -7 48 -4 105 10 221 24 287 33 39 6 97 14 130 18 59 7 60 7
20 13 -39 6 -38 6 30 17 176 30 651 104 755 118 63 9 171 27 240 41 69 14 143
27 165 29 22 2 101 12 175 24 446 66 1008 26 1485 -107 16 -5 24 -11 18 -15
-12 -7 -62 1 -158 27 -33 8 -91 20 -130 26 -38 5 -153 22 -255 37 -171 26
-208 28 -495 27 -294 0 -317 -1 -450 -27 -77 -15 -177 -29 -221 -32 -45 -3
-160 -20 -255 -39 -96 -19 -223 -42 -284 -50 -60 -9 -186 -27 -280 -41 -93
-13 -193 -25 -222 -25 -53 0 -87 -19 -36 -21 15 0 -15 -9 -67 -20 -89 -18
-170 -30 -398 -60 -72 -9 -95 -16 -103 -31 -8 -14 -6 -20 7 -25 31 -12 222 16
529 76 165 32 327 62 360 66 33 3 96 12 140 20 148 25 755 114 945 138 118 14
588 13 745 -2 135 -13 341 -48 482 -81 178 -42 487 -202 524 -272 12 -22 1
-19 -31 7 -26 22 -178 103 -264 141 -44 20 -94 42 -111 50 -91 40 -377 93
-659 120 -223 21 -519 13 -767 -22 -101 -14 -219 -30 -262 -35 -43 -5 -160
-22 -260 -38 -100 -16 -245 -37 -322 -46 -77 -9 -185 -25 -240 -35 -55 -11
-167 -31 -250 -45 -82 -14 -166 -30 -185 -35 -61 -17 135 -2 271 20 68 11 194
27 279 35 85 9 161 18 167 20 25 8 309 54 378 60 39 4 111 13 160 20 349 54
413 59 715 58 310 0 377 -6 700 -59 171 -28 277 -60 420 -126 104 -49 237
-131 220 -136 -6 -2 -16 1 -23 7 -17 13 -140 65 -232 97 -38 13 -79 28 -90 33
-119 53 -177 66 -440 103 -280 39 -837 33 -1120 -12 -158 -26 -620 -87 -715
-95 -41 -4 -86 -14 -99 -22 -14 -9 -20 -10 -16 -3 6 9 -1 10 -23 5 -17 -3 -46
-8 -64 -10 -97 -9 -143 -17 -158 -25 -11 -6 -21 -5 -28 2 -5 5 -15 7 -21 4 -5
-4 -56 -8 -113 -10 -57 -3 -148 -11 -203 -19 -55 -9 -127 -18 -160 -22 -75 -8
-157 -23 -164 -31 -9 -9 298 5 372 17 37 6 73 9 80 6 7 -3 44 1 82 8 80 15
399 51 525 60 91 6 359 41 425 55 22 5 76 11 120 15 44 3 114 10 155 15 298
38 542 53 717 46 291 -12 688 -69 847 -121 136 -45 268 -108 239 -112 -24 -5
-83 12 -185 50 -164 63 -502 108 -863 116 -278 6 -450 -2 -675 -33 -63 -9
-153 -21 -200 -26 -47 -6 -130 -17 -185 -25 -55 -8 -145 -19 -200 -24 -55 -6
-208 -21 -340 -35 -132 -14 -290 -31 -351 -37 -62 -7 -120 -9 -129 -5 -10 4
-70 0 -134 -8 -64 -8 -165 -20 -224 -26 -164 -18 -183 -31 -37 -25 131 6 164
9 295 25 44 6 105 12 135 14 30 2 93 7 140 11 47 4 83 5 80 2 -3 -3 -80 -13
-170 -22 -314 -31 -236 -42 105 -14 136 11 205 24 205 38 0 5 66 13 148 20
337 25 453 38 667 75 50 8 221 23 380 32 254 15 325 16 575 5 272 -12 415 -23
525 -40 28 -5 43 -9 35 -10 -18 -3 58 -39 83 -40 25 -1 187 -82 187 -93 0 -4
-21 2 -47 15 -75 37 -385 96 -565 107 -202 13 -503 12 -669 0 -74 -6 -199 -15
-279 -21 -157 -12 -569 -53 -690 -69 -41 -6 -127 -14 -190 -19 -135 -11 -592
-61 -870 -96 -252 -31 -407 -45 -504 -45 l-78 0 6 48 c4 26 13 70 21 97 8 28
26 109 40 180 14 72 37 171 50 220 27 101 179 693 350 1370 63 248 128 500
145 560 17 61 46 175 64 255 56 238 202 806 241 938 20 68 34 131 32 140 -4
16 -4 16 -12 0z m3145 -3391 c65 -45 120 -97 120 -115 0 -9 -18 2 -48 30 -27
25 -74 62 -105 83 -31 21 -57 42 -57 47 0 11 29 -4 90 -45z m-2893 -243 c-3
-3 -12 -4 -19 -1 -8 3 -5 6 6 6 11 1 17 -2 13 -5z m2776 -91 c23 -16 55 -30
71 -33 l29 -5 -27 -15 c-25 -13 -29 -13 -38 3 -5 10 -28 31 -50 47 -52 38 -42
39 15 3z"/>
<path d="M2433 6899 c-43 -12 -124 -88 -128 -119 -2 -14 -10 -42 -19 -62 -20
-47 -20 -43 5 -67 18 -16 21 -28 16 -61 -4 -35 -2 -44 21 -65 15 -14 33 -25
41 -25 8 0 41 21 73 46 33 25 62 44 64 41 13 -12 -10 -49 -56 -90 -45 -40 -78
-93 -66 -104 5 -6 175 39 240 64 37 13 52 25 59 46 13 39 -2 52 -81 73 -37 9
-75 21 -84 26 -29 14 -21 48 23 95 35 38 40 49 35 76 -3 18 -1 51 3 74 5 27 4
46 -2 52 -13 13 -99 13 -144 0z"/>
<path d="M8440 6888 c0 -3 22 -97 49 -209 28 -112 57 -233 65 -269 8 -36 28
-117 44 -180 29 -112 94 -390 113 -480 26 -120 82 -355 128 -535 28 -110 63
-249 77 -310 13 -60 28 -119 33 -130 10 -23 52 -195 106 -430 20 -88 53 -218
72 -290 20 -71 46 -175 58 -230 29 -130 89 -349 123 -449 31 -92 57 -117 35
-34 -7 29 -25 104 -39 165 -14 62 -36 143 -49 180 -14 37 -25 79 -25 93 0 37
-25 150 -65 289 -19 69 -35 130 -35 136 0 5 -11 46 -25 90 -14 44 -39 141 -55
215 -17 74 -50 212 -75 305 -25 94 -59 229 -75 300 -17 72 -39 157 -50 190
-11 33 -27 93 -35 134 -9 41 -27 112 -41 157 -13 45 -32 122 -40 171 -8 48
-26 124 -39 168 -14 44 -33 123 -44 175 -27 129 -49 210 -61 224 -5 7 -14 44
-20 82 -5 38 -19 103 -31 144 -11 41 -35 130 -53 198 -27 102 -46 155 -46 130z"/>
<path d="M5614 6700 c0 -91 2 -128 3 -82 2 45 2 119 0 165 -1 45 -3 8 -3 -83z"/>
<path d="M8370 6831 c0 -22 40 -213 56 -266 8 -27 21 -84 30 -125 8 -41 25
-120 39 -175 13 -55 42 -174 64 -265 22 -91 49 -212 61 -270 11 -58 32 -145
45 -195 13 -49 31 -128 41 -175 19 -98 40 -148 56 -132 10 10 -15 145 -32 167
-4 6 -10 26 -13 45 -13 91 -50 237 -63 251 -8 9 -21 59 -29 111 -14 93 -35
191 -54 258 -11 40 -41 165 -69 295 -58 266 -132 531 -132 476z"/>
<path d="M5344 6665 c0 -93 2 -133 3 -88 2 45 2 122 0 170 -1 48 -3 12 -3 -82z"/>
<path d="M3646 6755 c-91 -39 -122 -65 -132 -108 -11 -50 10 -57 168 -57 l138
0 -6 28 c-4 15 -22 44 -40 65 -25 27 -34 46 -34 72 0 19 -3 35 -7 35 -5 0 -43
-16 -87 -35z"/>
<path d="M4380 6700 c-87 -18 -123 -50 -118 -101 l3 -33 149 -38 c82 -21 151
-37 152 -35 9 9 -27 80 -58 115 -20 22 -39 54 -43 71 -7 33 -17 36 -85 21z"/>
<path d="M4706 6593 c-8 -16 -32 -38 -54 -51 -36 -20 -59 -48 -49 -59 13 -13
260 -94 272 -89 21 8 19 50 -5 95 -20 39 -63 81 -119 114 l-30 18 -15 -28z"/>
<path d="M6268 6613 c6 -2 18 -2 25 0 6 3 1 5 -13 5 -14 0 -19 -2 -12 -5z"/>
<path d="M6178 6603 c7 -3 16 -2 19 1 4 3 -2 6 -13 5 -11 0 -14 -3 -6 -6z"/>
<path d="M7113 6603 c9 -2 23 -2 30 0 6 3 -1 5 -18 5 -16 0 -22 -2 -12 -5z"/>
<path d="M6108 6593 c6 -2 18 -2 25 0 6 3 1 5 -13 5 -14 0 -19 -2 -12 -5z"/>
<path d="M7250 6585 c47 -7 99 -13 115 -13 17 0 -6 6 -50 13 -44 8 -96 13
-115 13 -19 0 3 -6 50 -13z"/>
<path d="M7418 6563 c6 -2 18 -2 25 0 6 3 1 5 -13 5 -14 0 -19 -2 -12 -5z"/>
<path d="M7488 6553 c7 -3 16 -2 19 1 4 3 -2 6 -13 5 -11 0 -14 -3 -6 -6z"/>
<path d="M2201 6505 c-79 -43 -118 -78 -142 -130 -36 -77 -34 -78 109 -40 180
48 182 49 182 85 0 25 -6 32 -35 44 -24 10 -36 23 -42 45 l-8 30 -64 -34z"/>
<path d="M7621 6498 c0 -13 3 -17 6 -10 9 22 101 13 232 -22 176 -48 303 -77
309 -72 2 3 -9 8 -24 12 -16 4 -125 31 -242 60 -117 30 -229 54 -248 54 -29 0
-34 -3 -33 -22z"/>
<path d="M3735 6456 c-66 -28 -103 -83 -140 -206 -9 -30 -27 -74 -40 -97 -13
-24 -19 -43 -13 -43 6 0 8 -9 5 -19 -4 -16 2 -21 32 -26 51 -9 86 7 100 45 6
17 15 29 20 26 15 -10 -8 -65 -33 -81 -11 -7 -43 -19 -71 -26 -104 -25 -161
-75 -153 -132 3 -21 7 -22 160 -25 l158 -3 -7 33 c-3 18 -11 35 -17 37 -24 9
-66 65 -66 87 0 32 10 30 64 -11 26 -19 50 -35 54 -35 4 0 31 16 59 35 60 40
63 41 63 18 0 -10 -27 -43 -60 -74 -90 -83 -88 -85 91 -94 82 -4 153 -4 157
-1 4 4 7 25 7 46 0 59 -61 111 -167 144 -9 3 -24 16 -33 30 -14 21 -14 28 -3
48 13 23 13 23 16 -9 3 -32 32 -63 58 -63 7 0 22 8 35 19 21 17 22 22 11 57
-6 22 -18 80 -25 130 -19 120 -38 158 -91 184 -49 23 -126 26 -171 6z"/>
<path d="M7620 6458 c0 -27 29 -48 63 -47 l32 1 -32 9 c-18 5 -39 19 -48 31
-12 18 -15 19 -15 6z"/>
<path d="M5623 6390 c0 -41 2 -58 4 -37 2 20 2 54 0 75 -2 20 -4 3 -4 -38z"/>
<path d="M3015 6411 c-87 -40 -124 -90 -140 -184 -3 -21 -20 -53 -37 -72 -25
-29 -28 -38 -18 -50 10 -12 10 -18 0 -30 -10 -12 -9 -16 3 -21 22 -8 85 24 92
47 4 10 11 19 16 19 14 0 11 -43 -5 -66 -14 -19 -11 -24 34 -69 l49 -48 71 63
c50 44 68 66 61 73 -6 6 -11 24 -11 39 0 22 8 33 35 49 39 23 46 42 43 109 -2
25 1 62 5 82 7 36 6 37 -36 62 -56 33 -88 33 -162 -3z"/>
<path d="M7242 6370 c0 -14 2 -19 5 -12 2 6 2 18 0 25 -3 6 -5 1 -5 -13z"/>
<path d="M4470 6359 c-62 -26 -84 -70 -100 -198 -6 -47 -16 -75 -41 -109 -31
-43 -31 -45 -14 -58 16 -12 22 -11 42 8 26 25 43 17 25 -12 -7 -11 -8 -20 -3
-20 5 0 11 -8 14 -17 5 -25 46 63 47 100 0 17 4 26 10 22 6 -4 10 -29 9 -56
-2 -47 1 -53 41 -94 57 -58 73 -63 115 -31 28 21 34 34 37 68 2 31 8 44 21 46
12 3 17 -3 17 -22 0 -15 10 -33 27 -45 30 -24 23 -42 -8 -22 -28 17 -32 10
-20 -36 14 -51 14 -56 -6 -49 -23 9 -81 -12 -93 -34 -25 -46 -16 -54 120 -104
72 -27 137 -46 146 -42 13 5 15 14 10 47 -9 54 -28 81 -88 124 -58 42 -63 72
-10 67 38 -4 40 8 10 49 -15 20 -25 52 -29 97 -4 37 -11 98 -15 135 -8 82 -31
120 -95 159 -50 32 -129 44 -169 27z"/>
<path d="M6810 6330 c-25 -25 -25 -50 0 -83 36 -46 98 -47 118 -1 18 37 15 58
-11 82 -30 28 -80 29 -107 2z m90 -30 c14 -26 -3 -60 -31 -60 -27 0 -47 44
-29 65 18 21 47 19 60 -5z"/>
<path d="M7020 6294 c-46 -55 -79 -116 -80 -145 0 -26 37 -51 85 -56 49 -6 75
7 75 39 0 25 -28 35 -43 15 -18 -23 -51 -29 -72 -13 -19 13 -18 16 23 75 47
66 76 127 64 134 -4 3 -27 -20 -52 -49z"/>
<path d="M7252 6315 c0 -16 2 -22 5 -12 2 9 2 23 0 30 -3 6 -5 -1 -5 -18z"/>
<path d="M6470 6316 c0 -2 7 -6 15 -10 8 -3 15 -1 15 4 0 6 -7 10 -15 10 -8 0
-15 -2 -15 -4z"/>
<path d="M6536 6296 c3 -8 -4 -20 -15 -28 -18 -13 -19 -20 -12 -67 9 -59 5
-64 -67 -75 -32 -5 -44 -3 -48 8 -8 21 21 70 57 99 l32 25 -36 0 c-21 0 -37
-4 -37 -10 0 -5 -5 -8 -12 -6 -16 6 -108 -101 -108 -125 0 -10 -11 -29 -25
-43 -21 -21 -24 -32 -19 -59 9 -50 39 -93 89 -124 39 -25 55 -29 128 -30 69
-1 90 2 127 22 83 44 122 139 79 196 -12 17 -35 35 -51 40 l-29 10 7 74 c6 70
5 75 -17 91 -29 20 -50 21 -43 2z m23 -260 c45 -48 -4 -106 -89 -106 -34 0
-47 6 -71 31 -36 38 -39 77 -6 84 93 20 141 17 166 -9z"/>
<path d="M2279 6256 c-64 -35 -109 -88 -109 -130 0 -19 -7 -47 -15 -62 -21
-42 -19 -63 10 -74 28 -11 29 -12 14 -63 -10 -36 -8 -41 26 -83 20 -24 39 -44
43 -44 4 0 35 25 69 56 55 48 62 58 57 83 -7 36 8 66 43 83 31 15 38 35 46
145 7 96 3 101 -86 109 -42 3 -61 -1 -98 -20z"/>
<path d="M7262 6260 c0 -14 3 -45 7 -70 6 -34 9 -37 9 -15 1 17 -3 48 -7 70
-6 25 -9 31 -9 15z"/>
<path d="M6106 6251 c15 -16 6 -56 -17 -77 -10 -9 -19 -24 -19 -32 0 -8 -10
-31 -22 -51 -21 -36 -21 -36 0 -15 11 12 25 24 30 25 6 2 12 18 13 34 2 17 13
38 24 48 20 19 20 18 23 -10 2 -15 9 -31 15 -35 7 -4 7 -11 -2 -22 -7 -9 -17
-13 -22 -10 -5 3 -9 -1 -9 -9 0 -8 -30 -43 -67 -79 -74 -69 -118 -122 -63 -73
154 136 190 177 190 221 0 25 -33 70 -63 85 -17 9 -19 9 -11 0z"/>
<path d="M688 6231 c-131 -42 -217 -128 -262 -263 -31 -93 -33 -158 -5 -240
40 -120 118 -202 224 -237 81 -26 135 -27 214 -2 159 50 256 156 280 309 23
152 -43 314 -160 388 -49 30 -153 64 -198 63 -20 0 -62 -8 -93 -18z m98 -138
c-4 -48 -11 -94 -16 -102 -4 -9 -31 -25 -59 -36 -38 -14 -51 -25 -51 -40 0
-30 -12 -43 -45 -48 l-30 -4 32 -2 c27 -1 37 -8 59 -46 33 -56 28 -74 -36
-145 -42 -46 -52 -53 -67 -44 -39 24 -107 184 -87 204 6 6 30 15 55 20 l44 9
-52 -5 -53 -5 0 38 c0 21 11 61 24 88 38 77 40 79 67 65 23 -13 24 -12 7 7
-24 26 -23 35 6 62 25 24 145 69 185 70 l24 1 -7 -87z m112 53 c26 -13 58 -36
71 -50 24 -25 24 -26 7 -71 -10 -25 -16 -50 -14 -57 2 -6 12 7 21 30 9 23 20
42 25 42 9 0 41 -93 45 -130 2 -23 -2 -25 -48 -30 l-50 -5 34 -12 c19 -7 42
-13 52 -13 15 0 17 -6 12 -37 -10 -78 -34 -134 -60 -144 -41 -16 -56 -10 -112
39 l-54 48 27 59 c26 58 26 61 11 96 -9 19 -30 44 -47 54 -30 18 -31 18 -24
84 3 36 6 78 6 94 0 22 4 27 25 27 14 0 47 -11 73 -24z m-75 -403 c4 -2 26
-32 48 -65 47 -69 45 -84 -12 -103 -73 -25 -89 -27 -90 -8 -1 17 -2 17 -6 1
-9 -37 -133 -6 -141 35 -3 16 67 121 97 145 15 12 81 9 104 -5z"/>
<path d="M1205 6222 c-6 -16 25 -52 46 -52 10 0 35 48 28 54 -2 2 -18 6 -36 9
-24 5 -33 2 -38 -11z m45 -18 c0 -8 -5 -12 -10 -9 -6 4 -8 11 -5 16 9 14 15
11 15 -7z"/>
<path d="M7770 6230 c-13 -8 -13 -11 2 -22 9 -8 21 -41 27 -80 l11 -67 -50
-49 c-37 -36 -50 -56 -50 -76 l0 -29 -72 7 c-161 15 -173 23 -139 89 21 40 90
127 101 127 5 0 18 -16 30 -35 12 -19 26 -35 32 -35 5 0 0 15 -11 34 -28 45
-27 54 14 73 33 16 37 16 73 -1 l37 -17 -29 24 c-28 23 -29 25 -10 35 18 11
18 11 0 12 -10 0 -45 -14 -78 -32 -110 -59 -225 -216 -197 -270 51 -97 179
-239 291 -324 92 -69 118 -95 134 -132 17 -42 48 -41 50 1 1 34 -4 29 101 92
73 44 91 51 108 42 18 -9 19 -9 6 7 -13 15 -9 22 31 64 24 26 56 71 71 100
l26 53 -23 52 c-13 29 -54 89 -92 133 -78 90 -80 92 -113 101 -13 3 -71 35
-129 69 -106 65 -125 71 -152 54z m175 -97 c27 -18 55 -33 62 -33 7 0 13 -4
13 -10 0 -5 -7 -10 -15 -10 -8 0 -15 -6 -15 -13 0 -8 -15 -31 -33 -52 l-33
-38 -30 22 c-44 32 -61 68 -67 144 l-6 68 37 -22 c20 -13 59 -38 87 -56z m187
-123 c77 -87 120 -149 116 -170 -2 -11 -13 -14 -38 -12 -76 7 -205 33 -224 45
-13 7 -65 14 -131 16 -130 3 -144 10 -122 62 8 19 26 45 40 58 34 31 68 23
119 -28 21 -21 38 -34 38 -28 0 15 61 77 76 77 7 0 18 -8 23 -17 14 -24 14 -7
0 18 -12 22 3 49 27 49 7 0 41 -32 76 -70z m-448 -144 c-11 -51 -45 -136 -54
-136 -18 0 -72 66 -101 122 -16 32 -29 59 -29 60 0 2 43 -1 95 -6 l96 -9 -7
-31z m161 4 c118 -9 131 -13 151 -51 8 -16 17 -29 20 -29 2 0 0 9 -6 21 -7 11
-9 23 -6 27 8 8 218 -27 230 -38 10 -10 -39 -120 -54 -120 -6 0 -8 11 -5 28 6
25 5 25 -9 -5 -14 -31 -17 -32 -63 -29 -26 2 -77 13 -112 25 -36 11 -68 18
-71 16 -4 -2 -30 -1 -58 4 -29 4 -52 4 -52 0 0 -4 17 -9 38 -11 l37 -3 0 -80
c0 -77 -1 -80 -22 -78 -28 3 -151 93 -177 129 -23 33 -14 42 49 47 l50 3 -52
2 c-29 1 -53 5 -53 10 0 19 22 137 27 144 3 5 12 6 22 2 9 -4 61 -11 116 -14z
m177 -202 c43 -13 78 -25 78 -28 0 -7 -85 -70 -128 -96 -33 -19 -34 -19 -48 0
-9 12 -14 44 -14 83 0 74 -2 73 112 41z"/>
<path d="M8078 5934 c16 -45 17 -47 20 -20 2 19 -3 36 -16 49 -20 19 -20 19
-4 -29z"/>
<path d="M8182 5765 c0 -16 2 -22 5 -12 2 9 2 23 0 30 -3 6 -5 -1 -5 -18z"/>
<path d="M8030 5761 c5 -11 15 -23 21 -27 6 -3 3 5 -6 20 -20 30 -30 35 -15 7z"/>
<path d="M9047 6234 c-4 -4 -7 -17 -7 -29 0 -19 5 -22 38 -20 32 1 37 4 37 25
0 20 -6 26 -30 28 -17 2 -34 0 -38 -4z"/>
<path d="M6872 6157 c-39 -40 -53 -67 -34 -67 14 0 60 54 71 83 6 15 9 27 8
27 -2 0 -22 -19 -45 -43z"/>
<path d="M5634 5935 c0 -115 2 -161 3 -102 2 59 2 154 0 210 -1 56 -3 8 -3
-108z"/>
<path d="M7282 6110 c0 -19 2 -27 5 -17 2 9 2 25 0 35 -3 9 -5 1 -5 -18z"/>
<path d="M7567 6063 c-22 -29 -19 -37 6 -18 10 7 17 20 15 28 -2 11 -8 9 -21
-10z"/>
<path d="M3150 6039 c0 -29 -37 -83 -72 -105 -21 -14 -43 -37 -48 -52 -6 -15
-14 -34 -19 -43 -7 -12 -4 -15 18 -12 181 21 277 35 292 44 14 7 19 21 19 54
0 54 -21 76 -97 105 -60 22 -93 26 -93 9z"/>
<path d="M7292 6030 c0 -14 2 -19 5 -12 2 6 2 18 0 25 -3 6 -5 1 -5 -13z"/>
<path d="M9508 6024 c-26 -11 -45 -30 -64 -62 -30 -52 -43 -64 -61 -57 -33 12
1 -92 43 -136 14 -15 46 -32 70 -39 25 -7 47 -17 50 -21 12 -20 115 66 134
112 22 51 5 91 -64 158 -35 33 -66 61 -68 60 -1 0 -20 -7 -40 -15z m71 -150
c34 -29 33 -44 -5 -44 -25 0 -77 48 -67 62 9 16 42 7 72 -18z"/>
<path d="M9550 5860 c20 -13 33 -13 25 0 -3 6 -14 10 -23 10 -15 0 -15 -2 -2
-10z"/>
<path d="M2812 5981 c-111 -58 -152 -106 -152 -181 0 -26 3 -30 28 -30 29 0
272 47 279 53 2 3 6 20 9 39 6 31 3 36 -35 61 -35 23 -41 32 -41 62 0 19 -3
35 -7 34 -5 -1 -41 -18 -81 -38z"/>
<path d="M4223 5909 c-7 -13 -13 -35 -15 -49 -3 -24 1 -26 162 -66 125 -31
166 -38 168 -28 5 19 -26 72 -51 89 -33 21 -160 64 -210 71 -38 5 -44 3 -54
-17z"/>
<path d="M5113 5865 c0 -38 2 -53 4 -32 2 20 2 52 0 70 -2 17 -4 1 -4 -38z"/>
<path d="M6080 5920 c-20 -6 -21 -8 -5 -8 11 0 31 4 45 8 20 6 21 8 5 8 -11 0
-31 -4 -45 -8z"/>
<path d="M6850 5903 c0 -27 28 -99 35 -91 3 3 1 17 -5 32 -18 48 -14 56 32 56
52 0 46 7 -15 19 -45 8 -47 8 -47 -16z"/>
<path d="M7040 5913 c69 -23 73 -23 60 -8 -7 8 -27 15 -44 14 -17 0 -24 -3
-16 -6z"/>
<path d="M2381 5875 c-7 -19 -33 -52 -58 -73 -24 -20 -53 -54 -64 -74 -24 -47
-36 -48 -45 -3 -4 25 -15 40 -35 51 -29 14 -46 52 -36 78 7 16 -128 -56 -161
-87 -32 -29 -68 -94 -77 -135 -6 -30 -5 -33 11 -28 68 21 299 76 320 76 27 0
243 53 291 71 33 12 43 26 43 61 0 45 -15 54 -160 94 -11 3 -20 -7 -29 -31z"/>
<path d="M5993 5900 c-35 -14 -27 -20 10 -8 17 6 34 13 36 14 8 7 -24 3 -46
-6z"/>
<path d="M6172 5885 c0 -16 2 -22 5 -12 2 9 2 23 0 30 -3 6 -5 -1 -5 -18z"/>
<path d="M6009 5845 c-115 -24 -144 -33 -118 -34 20 -1 241 47 247 54 8 8 -17
4 -129 -20z"/>
<path d="M6898 5848 c9 -9 15 -9 24 0 9 9 7 12 -12 12 -19 0 -21 -3 -12 -12z"/>
<path d="M7070 5840 c20 -13 40 -13 40 0 0 6 -12 10 -27 10 -22 0 -25 -2 -13
-10z"/>
<path d="M5114 5675 c0 -55 1 -76 3 -47 2 29 2 74 0 100 -2 26 -3 2 -3 -53z"/>
<path d="M9664 5749 c-10 -12 -32 -30 -49 -40 -22 -14 -25 -19 -12 -19 27 0
18 -44 -10 -48 -16 -2 -23 3 -26 20 -3 13 -3 -16 -1 -64 l3 -86 -77 3 c-75 3
-76 2 -43 -12 18 -8 63 -15 100 -15 73 -2 116 16 214 88 51 37 57 56 27 94
-11 14 -20 34 -20 45 -1 20 -1 20 -16 0 -11 -15 -18 -17 -32 -9 -9 6 -19 20
-20 30 -6 32 -18 36 -38 13z"/>
<path d="M3685 5725 c-88 -44 -104 -79 -105 -232 l0 -81 -51 -31 c-28 -18 -49
-37 -46 -44 6 -20 50 -19 85 3 26 16 32 26 32 55 0 19 5 35 10 35 16 0 33 -46
27 -72 -7 -26 -92 -82 -142 -94 -74 -17 -130 -74 -137 -139 l-3 -30 63 0 c34
1 113 2 175 3 l113 2 -4 35 c-5 41 -38 71 -59 54 -14 -12 -27 11 -38 74 -11
56 2 63 44 24 65 -62 74 -64 146 -20 52 31 61 41 54 55 -21 39 2 98 38 98 19
0 33 61 33 145 0 69 -3 87 -22 110 -45 57 -149 81 -213 50z"/>
<path d="M8561 5700 c-5 -27 0 -84 15 -154 17 -81 23 -94 36 -72 10 17 -15
140 -32 161 -5 6 -10 26 -13 45 -2 19 -5 28 -6 20z"/>
<path d="M2940 5691 c-43 -14 -84 -38 -108 -64 -23 -24 -28 -44 -49 -207 -3
-25 -15 -55 -26 -67 -11 -13 -16 -23 -10 -23 5 0 22 14 37 31 22 24 30 28 42
18 17 -14 18 -51 2 -67 -14 -14 26 -70 65 -91 23 -12 29 -11 71 18 25 17 48
36 51 41 12 19 25 10 25 -16 0 -41 -18 -64 -49 -64 -33 0 -43 -11 -59 -65 -14
-49 -23 -62 -41 -67 -11 -2 -14 9 -12 49 3 55 -13 75 -50 66 -17 -5 -19 1 -19
51 l0 57 -57 -39 c-32 -21 -77 -50 -100 -65 -55 -35 -94 -87 -100 -137 -5 -38
-4 -40 22 -40 15 0 129 15 253 34 125 19 268 38 317 42 50 3 93 12 97 18 4 6
8 30 8 53 0 50 -24 77 -82 95 -38 11 -97 63 -85 75 4 3 18 -4 32 -17 25 -23
25 -23 25 -2 0 11 5 32 11 46 9 20 8 44 -5 109 -11 54 -14 104 -10 138 9 74
-12 92 -104 96 -37 1 -78 -1 -92 -6z m106 -327 c-3 -9 -6 -25 -6 -37 0 -15 -3
-18 -11 -10 -12 12 -2 63 13 63 6 0 7 -7 4 -16z"/>
<path d="M5346 5593 c-4 -34 -3 -60 4 -67 7 -7 10 11 10 57 0 37 -2 67 -4 67
-2 0 -6 -26 -10 -57z"/>
<path d="M7352 5625 c0 -16 2 -22 5 -12 2 9 2 23 0 30 -3 6 -5 -1 -5 -18z"/>
<path d="M4447 5626 c-71 -26 -108 -81 -122 -181 -4 -27 -14 -57 -22 -66 -9
-11 -12 -26 -7 -43 4 -15 2 -26 -4 -26 -17 0 -42 -30 -42 -51 0 -13 7 -19 23
-19 30 0 40 -10 27 -25 -14 -17 14 -39 42 -32 11 3 29 2 39 -3 13 -8 18 -5 23
15 4 14 12 25 18 25 7 0 36 -23 64 -51 l52 -51 46 31 c34 24 46 39 47 59 1 20
3 16 9 -15 5 -23 20 -60 34 -82 33 -52 61 -54 82 -6 15 37 40 46 51 19 4 -10
-1 -22 -12 -30 -10 -8 -16 -16 -13 -20 4 -3 16 4 28 16 27 27 20 52 -27 101
-31 32 -36 45 -44 115 -23 184 -55 257 -127 297 -61 33 -116 41 -165 23z m-8
-346 c1 -13 0 -13 -9 0 -5 8 -9 24 -9 35 l0 20 9 -20 c5 -11 9 -27 9 -35z"/>
<path d="M5644 5350 c0 -157 2 -221 3 -142 2 78 2 206 0 285 -1 78 -3 14 -3
-143z"/>
<path d="M7605 5593 c-13 -12 -16 -27 -12 -57 6 -45 36 -76 72 -76 27 0 58 27
49 42 -4 6 -10 6 -17 -1 -14 -14 -67 -14 -67 0 0 5 4 8 9 4 11 -6 25 13 26 35
0 8 8 14 18 14 23 -2 21 8 -6 34 -28 26 -50 28 -72 5z"/>
<path d="M7158 5583 c6 -2 18 -2 25 0 6 3 1 5 -13 5 -14 0 -19 -2 -12 -5z"/>
<path d="M7208 5573 c7 -3 16 -2 19 1 4 3 -2 6 -13 5 -11 0 -14 -3 -6 -6z"/>
<path d="M2199 5559 c-54 -12 -115 -47 -133 -74 -9 -13 -16 -40 -16 -60 0 -20
-9 -53 -20 -75 -28 -55 -27 -98 3 -102 24 -3 28 -31 13 -93 -6 -25 -2 -36 27
-70 41 -47 50 -45 132 34 31 29 58 51 62 48 14 -14 -11 -60 -68 -122 -33 -37
-65 -80 -71 -96 -15 -43 -36 -36 -40 13 -3 37 -7 43 -32 49 -39 11 -47 26 -40
74 5 33 4 38 -7 28 -8 -6 -41 -26 -74 -44 -88 -47 -113 -67 -140 -108 -25 -40
-52 -118 -43 -126 4 -5 48 4 268 55 52 12 142 32 200 46 218 50 240 61 240
123 0 51 -22 69 -117 96 -43 13 -82 29 -87 37 -15 25 1 62 50 111 43 44 45 49
39 86 -3 21 -1 57 5 80 14 52 8 73 -27 89 -30 14 -70 14 -124 1z"/>
<path d="M7361 5554 c0 -11 3 -14 6 -6 3 7 2 16 -1 19 -3 4 -6 -2 -5 -13z"/>
<path d="M6171 5538 l-54 -10 6 -101 c3 -56 10 -163 16 -237 6 -74 16 -272 21
-440 6 -168 14 -360 17 -427 l6 -123 -23 0 c-13 0 -20 -3 -17 -6 4 -4 32 -2
64 4 107 21 437 33 612 22 200 -12 353 -19 288 -13 -26 2 -50 9 -52 16 -9 23
-44 354 -60 562 -9 116 -18 233 -21 261 l-5 51 -96 6 c-53 4 -98 5 -100 4 -1
-2 4 -70 12 -153 8 -82 23 -261 35 -399 11 -137 23 -267 26 -289 l6 -38 -73 6
c-41 3 -78 6 -84 7 -5 1 -82 -1 -170 -5 l-160 -8 -1 94 c-2 162 -50 1114 -60
1186 -6 41 -7 42 -43 41 -20 -1 -60 -6 -90 -11z"/>
<path d="M8127 5523 c-11 -10 -8 -92 3 -114 12 -21 60 -49 84 -49 9 0 23 11
32 25 33 51 -19 145 -80 145 -18 0 -36 -3 -39 -7z m71 -81 c3 -26 0 -32 -16
-32 -23 0 -33 19 -25 50 9 33 37 21 41 -18z m32 2 c0 -8 -4 -14 -10 -14 -5 0
-10 9 -10 21 0 11 5 17 10 14 6 -3 10 -13 10 -21z"/>
<path d="M6631 5344 c0 -11 3 -14 6 -6 3 7 2 16 -1 19 -3 4 -6 -2 -5 -13z"/>
<path d="M1031 5334 c0 -11 3 -14 6 -6 3 7 2 16 -1 19 -3 4 -6 -2 -5 -13z"/>
<path d="M7555 5330 c-9 -15 12 -38 38 -42 30 -4 18 -24 -13 -20 -20 2 -22 0
-10 -8 25 -17 60 -12 60 8 0 10 -5 23 -12 30 -7 7 -20 12 -30 12 -21 0 -24 16
-5 23 7 3 6 6 -5 6 -9 1 -20 -4 -23 -9z"/>
<path d="M7391 5304 c0 -11 3 -14 6 -6 3 7 2 16 -1 19 -3 4 -6 -2 -5 -13z"/>
<path d="M7675 5311 c13 -5 22 -20 25 -42 4 -27 10 -35 30 -37 22 -2 23 -1 8
8 -21 13 -24 56 -5 64 6 3 2 3 -10 0 -13 -3 -23 -1 -23 5 0 6 -10 11 -22 10
-22 0 -22 -1 -3 -8z"/>
<path d="M3870 5275 c0 -33 -32 -67 -75 -79 -32 -9 -40 -18 -52 -50 -7 -22
-12 -41 -10 -42 4 -4 234 -26 286 -28 32 -1 35 2 42 34 11 46 -6 96 -39 118
-14 9 -54 29 -89 44 l-63 26 0 -23z"/>
<path d="M7800 5272 c0 -17 9 -37 21 -48 22 -19 22 -19 10 3 -17 33 -13 53 12
63 20 8 19 9 -10 9 -30 1 -33 -2 -33 -27z"/>
<path d="M7876 5279 c20 -26 23 -48 8 -64 -14 -13 -14 -15 0 -15 39 0 35 75
-4 88 -12 4 -13 2 -4 -9z"/>
<path d="M7956 5247 c6 -39 22 -72 31 -64 2 2 -1 17 -7 32 -25 66 36 47 66
-20 9 -19 13 -24 14 -12 0 36 -29 73 -69 89 l-41 16 6 -41z"/>
<path d="M8655 5215 c3 -27 10 -54 15 -59 11 -11 4 37 -12 84 -5 17 -6 9 -3
-25z"/>
<path d="M8128 5235 c18 -9 32 -23 33 -33 0 -12 3 -10 10 7 11 29 13 27 -36
34 l-40 6 33 -14z"/>
<path d="M774 5225 c3 -8 1 -15 -3 -15 -5 0 -11 4 -13 9 -2 6 -29 6 -68 2 -42
-5 -67 -5 -72 2 -8 13 -60 -8 -84 -34 -17 -19 -17 -20 0 -13 12 5 2 -15 -28
-57 -26 -35 -50 -76 -53 -91 -6 -31 -43 -47 -43 -18 0 10 7 34 16 55 20 48 11
56 -16 14 -27 -44 -23 -120 13 -208 36 -90 66 -128 117 -152 25 -11 56 -26 69
-32 50 -24 169 -1 235 46 38 27 102 127 122 192 11 35 15 66 10 97 -12 81
-100 186 -175 208 -27 7 -32 7 -27 -5z m98 -60 c0 -5 -5 -11 -11 -13 -6 -2
-11 4 -11 13 0 9 5 15 11 13 6 -2 11 -8 11 -13z m-203 -132 c-1 -113 -11 -158
-34 -158 -18 0 -20 6 -17 55 4 75 -8 113 -38 120 l-24 6 22 22 c14 14 34 22
57 22 l35 0 -1 -67z m126 53 c16 -12 20 -29 24 -97 3 -71 1 -84 -15 -96 -22
-16 -86 -17 -102 -1 -29 29 1 74 33 48 30 -25 44 8 23 55 -9 21 -17 25 -35 20
-21 -5 -23 -2 -23 28 0 18 5 38 12 45 16 16 60 15 83 -2z"/>
<path d="M9575 5211 c-43 -19 -94 -72 -121 -123 -38 -74 -13 -183 63 -276 60
-73 137 -91 229 -52 90 39 139 118 139 225 0 63 -4 77 -35 129 -63 104 -174
143 -275 97z m75 -133 c31 1 33 0 14 -9 -21 -10 -34 -63 -34 -136 0 -70 65 23
77 110 5 31 10 37 29 37 23 0 23 -2 22 -94 l-2 -94 -80 -4 c-91 -5 -116 5 -97
40 6 11 11 39 11 62 0 34 -4 42 -25 50 -14 5 -25 14 -25 19 0 16 34 31 55 24
11 -4 36 -6 55 -5z"/>
<path d="M8270 5200 c0 -5 12 -10 28 -10 21 0 24 2 12 10 -20 13 -40 13 -40 0z"/>
<path d="M8764 5185 c-3 -8 -4 -20 -2 -27 3 -7 7 -1 10 15 6 29 1 36 -8 12z"/>
<path d="M8306 5171 c-19 -7 -19 -8 2 -13 15 -4 22 -2 22 8 0 8 -1 14 -2 13
-2 0 -12 -4 -22 -8z"/>
<path d="M8280 5132 c0 -13 47 -28 57 -18 4 3 -3 6 -13 6 -11 0 -25 5 -32 12
-9 9 -12 9 -12 0z"/>
<path d="M4180 5099 c-11 -25 -11 -32 0 -39 8 -5 77 -20 154 -35 78 -14 149
-28 160 -32 16 -4 17 -1 11 29 -9 43 -18 52 -58 55 -17 1 -72 13 -122 27 -118
34 -130 33 -145 -5z"/>
<path d="M8773 5099 c3 -13 11 -52 18 -87 6 -34 14 -60 17 -58 8 9 -20 156
-31 163 -6 4 -8 -3 -4 -18z"/>
<path d="M4572 5056 c-23 -30 -37 -64 -29 -73 3 -3 52 -17 109 -33 57 -15 120
-35 142 -44 21 -9 42 -13 47 -10 16 10 10 91 -9 114 -16 19 -22 21 -40 11 -13
-7 -48 -11 -80 -10 -51 2 -60 6 -88 37 l-30 35 -22 -27z"/>
<path d="M5654 4740 c0 -168 2 -236 3 -152 2 83 2 221 0 305 -1 83 -3 15 -3
-153z"/>
<path d="M7900 4998 c-34 -23 -35 -25 -42 -113 -7 -83 -6 -91 16 -129 14 -23
45 -66 70 -95 25 -30 48 -67 51 -82 18 -82 185 -139 246 -83 10 9 22 14 25 11
13 -13 -8 -60 -46 -101 -22 -24 -40 -46 -40 -50 0 -3 15 -46 34 -94 52 -133
52 -134 16 -176 -23 -25 -28 -37 -18 -40 65 -22 499 -108 506 -101 3 3 -1 5
-10 5 -24 0 -46 32 -58 85 -19 90 -70 231 -99 277 -35 54 -68 80 -186 145
-110 61 -125 83 -100 151 38 109 39 120 17 170 -11 26 -23 59 -26 73 -9 44
-49 90 -110 128 -52 32 -68 36 -135 39 -67 3 -80 1 -111 -20z"/>
<path d="M8828 4945 c-3 -22 -1 -43 5 -46 5 -4 7 -11 3 -17 -3 -6 -2 -20 2
-33 l9 -23 6 25 c3 13 0 49 -7 79 l-13 55 -5 -40z"/>
<path d="M3606 4938 c-69 -46 -89 -78 -98 -151 -4 -34 -10 -79 -14 -100 -6
-34 -3 -41 31 -72 34 -33 36 -37 29 -80 -8 -53 7 -82 60 -114 40 -25 52 -21
133 38 40 29 42 33 45 87 3 52 6 59 33 74 35 20 55 72 37 101 -9 13 -9 32 -1
72 10 48 9 58 -10 95 -28 56 -59 73 -134 79 -57 4 -66 2 -111 -29z"/>
<path d="M2830 4898 c-98 -36 -140 -95 -140 -194 0 -25 -6 -47 -15 -54 -20
-16 -19 -64 1 -81 8 -7 22 -26 31 -42 12 -25 13 -37 3 -73 -15 -54 -30 -67
-137 -124 -103 -54 -143 -98 -150 -164 l-6 -46 34 0 c19 0 93 9 164 21 l130
21 2 59 c1 56 1 58 -19 48 -31 -16 -43 4 -42 67 1 30 4 58 7 61 3 3 23 -9 44
-26 21 -17 47 -31 59 -31 13 0 53 20 90 45 36 25 69 45 71 45 8 0 -7 -50 -29
-102 -22 -53 -34 -58 -65 -29 -21 20 -21 20 -27 -27 -3 -26 -13 -59 -20 -74
-18 -35 -22 -34 139 -8 66 11 134 20 152 20 44 0 63 23 63 76 0 54 -26 82 -97
108 -96 35 -105 39 -120 62 -10 16 -13 35 -8 61 7 44 21 65 52 82 28 14 51 84
35 104 -9 10 -9 28 -1 68 15 74 3 102 -57 128 -57 26 -74 26 -144 -1z"/>
<path d="M4423 4841 c-51 -24 -63 -45 -63 -110 0 -41 -3 -51 -16 -51 -29 0
-11 -79 24 -110 40 -33 46 -59 27 -108 -17 -40 -35 -53 -100 -68 -103 -24
-165 -75 -165 -134 l0 -37 78 -17 c42 -10 127 -29 187 -42 61 -13 182 -48 270
-78 181 -61 185 -60 185 23 0 67 -35 117 -128 182 l-79 56 -9 -40 c-7 -34 -16
-45 -49 -61 -23 -13 -48 -37 -61 -59 -23 -42 -32 -38 -52 21 -7 19 -23 43 -37
54 -14 11 -32 32 -39 47 -17 32 -31 101 -21 101 4 0 37 -27 74 -59 l67 -59 56
34 56 34 -6 45 c-5 46 15 85 43 85 23 0 45 37 45 73 0 20 -4 37 -10 37 -6 0
-10 31 -10 72 l0 71 -45 43 c-29 29 -62 48 -96 59 -66 19 -75 19 -126 -4z"/>
<path d="M7280 4830 c-13 -8 -12 -10 3 -10 9 0 17 -8 17 -17 0 -20 -69 -85
-81 -77 -5 3 -17 0 -28 -5 -22 -12 -37 0 -44 39 -3 19 -5 16 -6 -11 -2 -55 17
-228 40 -364 11 -66 21 -132 24 -146 2 -14 -1 -31 -6 -36 -7 -7 16 -12 68 -17
75 -7 246 -30 308 -42 l30 -6 -23 17 c-12 9 -26 14 -31 11 -13 -9 -135 14
-147 27 -6 7 -19 75 -28 152 -9 77 -26 205 -37 285 -31 233 -27 220 -59 200z"/>
<path d="M8850 4803 c0 -45 31 -168 46 -180 9 -6 13 -16 10 -21 -3 -5 1 -15 8
-21 17 -14 31 -83 27 -129 -1 -18 5 -68 14 -110 30 -135 44 -135 25 1 -24 170
-75 397 -91 407 -4 3 -15 21 -23 40 -12 27 -15 30 -16 13z"/>
<path d="M2042 4781 c-18 -5 -39 -17 -46 -27 -8 -11 -27 -18 -47 -18 -31 -1
-33 -4 -46 -51 -7 -27 -13 -69 -13 -92 0 -23 -4 -45 -10 -48 -13 -8 -31 -80
-24 -98 3 -8 14 -17 25 -20 22 -6 26 -57 9 -103 -12 -31 -2 -47 43 -70 37 -20
74 -11 137 32 28 19 50 30 50 25 0 -13 -42 -124 -51 -134 -4 -5 -18 -1 -32 8
-15 9 -28 12 -31 7 -6 -11 4 -162 11 -162 18 0 268 62 283 70 18 10 40 65 40
102 0 32 -45 69 -115 94 -86 31 -105 48 -105 90 0 45 17 80 47 93 29 13 57 75
49 107 -4 13 -1 45 4 71 19 81 -12 119 -104 128 -22 2 -56 0 -74 -4z"/>
<path d="M5114 4645 c0 -71 1 -99 3 -62 2 37 2 96 0 130 -2 34 -3 4 -3 -68z"/>
<path d="M8801 4624 c0 -11 3 -14 6 -6 3 7 2 16 -1 19 -3 4 -6 -2 -5 -13z"/>
<path d="M8811 4549 c4 -27 12 -56 17 -65 7 -13 10 -10 15 16 9 41 1 73 -22
87 -16 10 -17 8 -10 -38z"/>
<path d="M7873 4500 c-56 -20 -109 -43 -118 -50 -35 -29 -46 -70 -52 -198 l-6
-128 201 -28 c111 -15 218 -32 237 -36 36 -8 36 -8 19 13 -10 12 -35 38 -56
57 l-37 35 18 55 c10 30 22 75 25 100 6 43 4 49 -38 103 -25 32 -50 71 -58 87
-7 17 -17 29 -23 29 -5 -1 -56 -18 -112 -39z"/>
<path d="M3505 4471 c-6 -5 -39 -21 -75 -35 -100 -41 -164 -118 -145 -176 6
-19 15 -20 165 -20 178 0 170 -4 170 84 0 32 -3 37 -17 31 -10 -4 -25 -8 -33
-9 -17 -1 -39 54 -39 102 -1 32 -9 40 -26 23z"/>
<path d="M3802 4436 c-20 -56 -50 -87 -80 -84 -24 3 -27 -1 -33 -41 -3 -24
-13 -50 -23 -56 -14 -11 6 -14 116 -20 73 -4 156 -5 183 -3 l50 3 3 45 c4 65
-26 106 -113 152 -39 21 -75 38 -80 38 -6 0 -17 -15 -23 -34z"/>
<path d="M5661 4294 c-1 -130 7 -214 20 -214 5 0 6 6 3 14 -3 7 -9 82 -13 167
l-8 154 -2 -121z"/>
<path d="M5114 4200 c0 -91 2 -128 3 -82 2 45 2 119 0 165 -1 45 -3 8 -3 -83z"/>
<path d="M495 4303 c-35 -9 -43 -23 -56 -93 l-12 -69 34 -45 c31 -41 87 -76
122 -76 25 0 127 72 132 93 3 12 0 51 -7 86 -17 83 -41 102 -129 106 -35 2
-73 1 -84 -2z m45 -193 c0 -5 -2 -10 -4 -10 -3 0 -8 5 -11 10 -3 6 -1 10 4 10
6 0 11 -4 11 -10z"/>
<path d="M1845 4270 c-4 -6 -37 -26 -74 -45 -105 -52 -165 -132 -195 -258 -6
-27 -5 -28 21 -23 15 3 84 15 153 27 160 27 150 23 150 61 0 18 9 53 20 77 28
61 27 76 -4 56 -21 -14 -24 -14 -36 0 -7 9 -13 38 -14 65 -1 48 -8 61 -21 40z"/>
<path d="M7552 4210 c0 -14 2 -19 5 -12 2 6 2 18 0 25 -3 6 -5 1 -5 -13z"/>
<path d="M9648 4223 c-2 -5 -3 -42 -3 -83 0 -68 2 -75 20 -78 19 -3 20 2 17
70 -2 40 -5 79 -7 86 -5 13 -22 16 -27 5z"/>
<path d="M9726 4188 c13 -78 19 -93 42 -93 39 -1 33 -12 -10 -21 l-43 -8 39
-4 c62 -6 69 1 50 45 -8 21 -19 56 -22 78 -6 34 -11 40 -35 43 -27 3 -27 3
-21 -40z"/>
<path d="M9840 4191 c0 -42 16 -63 31 -40 6 10 9 6 9 -13 0 -26 -22 -58 -41
-58 -5 0 -9 -4 -9 -10 0 -15 63 -12 84 3 17 12 18 21 10 83 l-9 69 -37 3 -38
3 0 -40z"/>
<path d="M9006 4170 c21 -154 138 -609 172 -675 9 -16 19 -52 22 -80 4 -44 8
-50 30 -53 22 -4 23 -2 10 13 -8 10 -15 32 -17 49 -2 41 -61 283 -78 321 -16
37 -36 99 -40 128 -2 12 -9 53 -14 90 -18 114 -58 249 -61 207 -1 -8 -8 -1
-16 15 -14 30 -14 30 -8 -15z"/>
<path d="M6010 4182 c-77 -11 -164 -33 -209 -53 -72 -31 -58 -33 25 -4 38 13
105 30 149 37 44 8 76 16 70 19 -5 3 -21 3 -35 1z"/>
<path d="M6073 4183 c9 -2 25 -2 35 0 9 3 1 5 -18 5 -19 0 -27 -2 -17 -5z"/>
<path d="M8988 3957 c4 -31 4 -31 -12 -12 l-17 20 5 -20 c2 -11 10 -46 17 -77
12 -58 28 -77 30 -35 0 21 1 21 10 2 10 -23 5 17 -12 98 -13 54 -27 72 -21 24z
m9 -69 c-3 -8 -6 -5 -6 6 -1 11 2 17 5 13 3 -3 4 -12 1 -19z"/>
<path d="M491 3947 c-17 -17 -13 -25 19 -42 34 -18 39 -44 10 -52 -42 -11 -16
-43 35 -43 32 0 40 17 24 47 -12 23 -11 27 14 45 28 20 36 47 15 49 -63 6
-108 5 -117 -4z"/>
<path d="M5112 3835 c0 -44 3 -100 7 -125 l8 -45 1 60 c0 33 -4 89 -8 125 l-7
65 -1 -80z"/>
<path d="M9840 3677 c0 -16 52 -117 60 -117 14 0 12 73 -2 92 -12 15 -58 35
-58 25z"/>
<path d="M9790 3655 c-14 -16 -5 -85 10 -85 15 0 30 36 30 69 0 34 -19 41 -40
16z"/>
<path d="M508 3633 c6 -2 18 -2 25 0 6 3 1 5 -13 5 -14 0 -19 -2 -12 -5z"/>
<path d="M9884 3513 c-8 -12 -24 -18 -50 -18 -32 0 -39 -4 -39 -20 0 -17 6
-20 44 -18 52 2 64 12 59 47 -3 24 -4 25 -14 9z"/>
<path d="M1638 3513 c7 -3 16 -2 19 1 4 3 -2 6 -13 5 -11 0 -14 -3 -6 -6z"/>
<path d="M1540 3500 c-17 -6 -9 -7 25 -3 28 3 52 7 54 9 8 7 -54 2 -79 -6z"/>
<path d="M1488 3483 c7 -3 16 -2 19 1 4 3 -2 6 -13 5 -11 0 -14 -3 -6 -6z"/>
<path d="M1408 3473 c6 -2 18 -2 25 0 6 3 1 5 -13 5 -14 0 -19 -2 -12 -5z"/>
<path d="M736 3324 c-4 -20 -5 -38 -2 -41 2 -3 8 11 12 31 3 21 4 39 1 42 -2
3 -8 -11 -11 -32z"/>
<path d="M1619 3335 c-9 -9 -215 -37 -276 -37 -41 0 -62 -4 -60 -12 1 -6 -19
-13 -48 -17 -49 -6 -48 -6 19 -7 38 -1 85 2 105 7 20 5 82 17 139 27 57 10
111 23 120 30 9 8 14 14 11 14 -3 0 -8 -2 -10 -5z"/>
<path d="M3460 2911 c0 -10 7 -24 15 -31 21 -17 39 1 30 29 -8 27 -45 28 -45
2z"/>
<path d="M3567 2923 c-11 -11 -8 -20 9 -27 23 -9 37 3 23 20 -13 15 -22 18
-32 7z"/>
<path d="M3040 2898 c0 -7 5 -20 10 -28 9 -13 11 -13 20 0 16 24 12 40 -10 40
-11 0 -20 -6 -20 -12z"/>
<path d="M3278 2903 c7 -3 16 -2 19 1 4 3 -2 6 -13 5 -11 0 -14 -3 -6 -6z"/>
<path d="M4020 2890 c0 -11 7 -20 15 -20 8 0 15 9 15 20 0 11 -7 20 -15 20 -8
0 -15 -9 -15 -20z"/>
<path d="M7833 2855 c-6 -18 23 -55 44 -55 16 0 17 24 3 51 -13 23 -38 25 -47
4z"/>
<path d="M6402 2765 c0 -16 2 -22 5 -12 2 9 2 23 0 30 -3 6 -5 -1 -5 -18z"/>
<path d="M7238 2730 c-2 -18 -21 -34 -81 -66 -108 -57 -156 -72 -168 -53 -6
10 -9 8 -9 -11 0 -22 -19 -37 -127 -103 -94 -58 -128 -74 -135 -65 -5 9 -8 6
-8 -9 0 -14 -13 -29 -37 -44 -21 -12 -51 -31 -68 -41 -16 -10 -64 -35 -106
-56 -41 -21 -106 -60 -143 -87 -37 -26 -104 -67 -149 -90 -45 -23 -121 -68
-169 -99 -102 -66 -194 -116 -215 -116 -13 0 -15 49 -11 403 2 222 3 408 0
415 -2 7 -11 12 -20 12 -16 0 -17 -38 -14 -487 2 -269 0 -512 -3 -540 l-6 -53
-40 0 c-50 0 -51 -17 -1 -21 74 -7 1887 6 1868 14 -10 4 -416 8 -903 8 -758 0
-885 2 -890 15 -3 8 -1 59 3 115 l9 101 36 12 c40 14 255 133 274 152 6 7 45
29 85 49 41 21 102 55 136 76 34 22 65 39 69 39 4 0 20 11 35 23 15 13 70 45
121 72 52 26 102 55 112 63 9 8 17 12 17 7 0 -4 12 5 27 20 15 15 41 34 58 42
16 9 62 35 102 60 40 25 77 42 83 38 5 -3 13 0 16 9 7 19 124 66 167 67 17 0
26 3 20 6 -7 2 -13 10 -13 16 1 17 71 68 82 60 6 -3 8 -24 6 -47 -3 -22 -2
-54 2 -71 l8 -30 1 30 c6 95 3 152 -6 170 -11 18 -11 18 -15 -5z"/>
<path d="M437 2723 c-12 -11 -8 -68 5 -81 16 -16 28 -15 28 2 0 8 7 17 16 20
11 4 14 13 11 28 -5 16 -3 18 6 9 8 -8 7 -18 -6 -40 -15 -26 -17 -65 -17 -343
0 -172 -3 -397 -7 -500 l-6 -188 -29 0 c-27 0 -42 -19 -15 -21 6 0 352 0 767
1 415 0 759 0 764 0 5 0 4 6 -2 13 -13 16 -15 108 -13 662 1 313 -1 440 -9
440 -8 0 -11 -94 -10 -320 0 -176 -2 -422 -6 -547 l-7 -228 -32 0 -32 0 5 470
5 471 -69 -3 -69 -3 -6 -175 c-4 -96 -7 -307 -8 -467 l-1 -293 -77 0 -76 0 6
158 c4 86 10 268 14 405 l6 247 -75 0 -75 0 -6 -202 c-4 -112 -7 -264 -7 -338
0 -74 -3 -165 -7 -202 l-6 -68 -64 0 -64 0 6 233 c3 127 8 269 10 314 3 53 1
84 -6 88 -6 4 -39 4 -74 0 l-63 -6 -6 -122 c-4 -67 -8 -207 -10 -312 l-2 -190
-69 -3 -68 -3 8 247 7 247 -68 -8 c-38 -4 -71 -9 -74 -12 -3 -2 -7 -109 -10
-236 l-5 -232 -65 0 -65 0 4 123 3 122 -38 1 c-22 1 -52 2 -69 2 l-30 1 -2
-125 -2 -124 -38 0 -38 0 3 500 c2 305 7 510 14 527 15 39 -4 68 -46 68 -18 0
-36 -3 -39 -7z m37 -21 c2 -4 -2 -16 -10 -27 -13 -18 -14 -18 -14 8 0 25 13
36 24 19z"/>
<path d="M7860 2713 c-51 -10 -63 -32 -56 -102 3 -36 10 -69 16 -75 7 -7 10
-6 10 2 0 7 3 12 8 12 4 0 7 -23 7 -51 0 -44 -5 -55 -28 -73 -47 -38 -26 -76
42 -76 45 0 79 36 91 95 5 28 21 72 35 99 31 62 32 107 2 141 -23 27 -75 39
-127 28z m66 -40 c28 -38 10 -133 -25 -133 -29 0 -31 10 -19 83 11 69 21 80
44 50z"/>
<path d="M5716 2673 c4 -26 3 -35 -4 -28 -6 6 -12 21 -15 35 -3 18 -5 15 -6
-12 0 -21 3 -38 8 -38 5 0 16 -3 25 -6 13 -5 16 2 16 40 0 35 -4 46 -15 46
-13 0 -15 -7 -9 -37z"/>
<path d="M3123 2646 c-104 -34 -176 -98 -222 -196 -21 -44 -26 -70 -26 -130 0
-65 5 -85 33 -142 39 -79 92 -129 171 -159 84 -32 152 -30 232 8 120 56 189
142 210 262 20 111 -32 233 -129 308 -69 53 -191 75 -269 49z m182 -65 c53
-24 119 -100 139 -158 61 -180 -69 -363 -260 -363 -280 0 -356 397 -99 516 63
30 161 32 220 5z"/>
<path d="M3135 2412 c-45 -15 -50 -20 -53 -49 l-3 -32 28 14 c54 28 199 14
153 -15 -13 -8 -141 -26 -167 -23 -31 2 -10 -25 50 -66 56 -38 68 -36 131 19
27 24 36 40 36 64 0 52 -11 76 -41 91 -36 19 -72 18 -134 -3z"/>
<path d="M2206 2641 c-4 -7 -5 -15 -2 -18 9 -9 19 4 14 18 -4 11 -6 11 -12 0z"/>
<path d="M6400 2604 c0 -8 5 -12 10 -9 6 4 8 11 5 16 -9 14 -15 11 -15 -7z"/>
<path d="M9714 2595 c-22 -23 -26 -32 -21 -67 6 -46 41 -88 73 -88 13 0 33 13
48 31 48 56 27 132 -41 145 -26 5 -37 1 -59 -21z"/>
<path d="M6703 2545 c0 -38 2 -53 4 -32 2 20 2 52 0 70 -2 17 -4 1 -4 -38z"/>
<path d="M8392 2595 c-20 -14 -23 -24 -20 -68 3 -46 7 -54 37 -74 19 -13 38
-23 43 -23 21 0 78 69 78 93 0 61 -89 107 -138 72z"/>
<path d="M8892 2587 c-21 -23 -29 -68 -16 -101 3 -9 21 -25 40 -37 33 -20 36
-20 60 -4 50 32 63 105 26 148 -23 26 -83 23 -110 -6z"/>
<path d="M9264 2602 c-39 -26 -39 -105 -1 -140 38 -34 56 -34 88 -3 40 40 41
100 3 130 -27 21 -69 27 -90 13z"/>
<path d="M2115 2581 c-5 -18 -1 -29 18 -49 23 -22 29 -24 52 -14 14 6 25 20
25 29 -1 17 -1 17 -15 0 -20 -27 -48 -17 -61 23 -11 32 -12 33 -19 11z"/>
<path d="M7398 2593 c7 -3 16 -2 19 1 4 3 -2 6 -13 5 -11 0 -14 -3 -6 -6z"/>
<path d="M2380 2450 c0 -69 0 -70 26 -70 30 0 105 -20 118 -31 13 -12 13 -227
-1 -299 -7 -36 -19 -121 -28 -190 -8 -69 -19 -140 -25 -159 -5 -19 -7 -38 -4
-42 3 -5 -10 -6 -28 -3 -18 4 -37 7 -43 8 -5 0 -9 -7 -10 -17 0 -10 -7 -22
-15 -27 -17 -11 -16 -11 138 -15 56 -2 105 1 108 6 3 5 -3 9 -14 9 -18 0 -19
13 -26 210 -3 115 -3 317 0 450 l7 240 -101 0 -102 0 0 -70z"/>
<path d="M4546 2437 c-81 -90 -137 -164 -183 -242 -19 -32 -43 -67 -54 -76
-14 -12 -19 -30 -19 -63 0 -43 -2 -47 -28 -52 -22 -5 -40 -23 -78 -82 -27 -42
-48 -80 -46 -84 1 -4 -2 -8 -8 -8 -5 0 -14 -9 -20 -20 -9 -16 -6 -29 11 -60
18 -32 20 -42 9 -55 -10 -12 -10 -15 4 -15 9 0 16 4 16 9 0 5 8 7 19 4 10 -2
18 -12 17 -21 -1 -12 8 -18 32 -20 18 -2 32 0 31 5 -1 4 -1 18 0 31 2 34 21
16 21 -19 0 -26 -3 -29 -33 -29 -19 0 -56 7 -82 15 -61 18 -69 13 -14 -9 168
-68 393 -14 535 129 148 147 191 372 104 548 -46 92 -124 187 -153 187 -9 0
-45 -33 -81 -73z"/>
<path d="M7970 2395 c0 -20 5 -25 25 -25 28 0 35 20 8 21 -11 0 -13 3 -5 6 19
8 14 23 -8 23 -15 0 -20 -7 -20 -25z"/>
<path d="M8330 2394 c-35 -15 -37 -22 -51 -154 -10 -86 -10 -116 0 -136 18
-40 30 -19 52 87 19 90 31 120 45 106 4 -4 1 -60 -5 -126 -8 -72 -10 -133 -4
-153 4 -18 8 -100 8 -183 0 -142 1 -150 20 -150 23 0 29 25 44 184 18 191 48
165 58 -49 5 -114 14 -147 34 -134 11 7 22 102 21 193 -1 66 3 89 17 107 14
18 16 32 10 80 -12 100 -11 236 3 232 12 -4 46 -141 47 -190 1 -32 16 -36 31
-9 14 27 12 79 -5 186 -20 123 -22 125 -177 122 -66 -1 -133 -7 -148 -13z"/>
<path d="M8910 2401 l-95 -6 -18 -37 c-36 -73 -50 -255 -22 -278 20 -16 29 8
44 121 14 94 25 125 37 96 5 -15 -9 -177 -22 -249 -4 -19 1 -32 15 -45 19 -16
21 -28 21 -148 0 -132 7 -162 33 -152 18 7 27 72 27 198 0 175 42 123 58 -73
5 -64 13 -121 17 -127 3 -6 15 -11 26 -11 22 0 22 -1 10 170 -6 76 -5 120 2
131 7 12 6 53 -6 142 -20 150 -21 175 -6 160 6 -6 22 -59 36 -117 13 -58 29
-106 35 -106 13 0 3 216 -12 271 -18 63 -35 69 -180 60z"/>
<path d="M9292 2402 c-83 -2 -94 -5 -107 -25 -19 -29 -39 -205 -30 -264 6 -43
8 -46 20 -29 7 10 21 60 30 112 24 129 40 124 29 -8 -9 -109 -8 -333 2 -431 6
-52 8 -58 28 -55 25 4 34 47 35 173 3 206 42 148 57 -83 6 -97 8 -103 28 -100
20 3 21 10 28 178 4 96 4 230 1 298 -8 173 14 162 42 -21 5 -29 10 -37 23 -35
35 7 12 237 -26 271 -23 19 -50 23 -160 19z"/>
<path d="M9644 2400 c-28 -11 -42 -53 -56 -166 -12 -91 -4 -178 17 -179 10 0
34 102 35 150 0 44 19 105 32 105 11 0 9 -59 -8 -242 -5 -54 -4 -68 7 -68 11
0 14 -24 15 -113 1 -145 9 -187 34 -187 19 0 20 8 20 136 0 126 8 174 30 174
12 0 18 -34 34 -178 13 -122 23 -151 46 -137 8 5 10 87 7 312 -3 168 -1 301 3
296 10 -10 40 -152 40 -187 0 -31 14 -40 30 -21 10 12 11 43 7 118 -8 131 -21
175 -53 187 -31 12 -211 12 -240 0z"/>
<path d="M6110 2371 c0 -5 5 -13 10 -16 6 -3 10 -2 10 4 0 5 -4 13 -10 16 -5
3 -10 2 -10 -4z"/>
<path d="M6412 2330 c0 -14 2 -19 5 -12 2 6 2 18 0 25 -3 6 -5 1 -5 -13z"/>
<path d="M2203 2313 c-7 -15 -11 -28 -9 -31 6 -6 28 38 24 48 -2 5 -9 -3 -15
-17z"/>
<path d="M2135 2308 c-4 -9 0 -26 8 -38 12 -17 16 -18 26 -7 9 11 7 20 -8 38
-17 21 -20 22 -26 7z"/>
<path d="M7280 2120 c0 -5 5 -10 11 -10 5 0 7 5 4 10 -3 6 -8 10 -11 10 -2 0
-4 -4 -4 -10z"/>
<path d="M7902 2076 c2 -38 7 -56 16 -56 18 0 12 102 -6 108 -9 3 -12 -10 -10
-52z"/>
<path d="M5227 2081 c-9 -16 -17 -40 -17 -54 0 -18 -10 -31 -34 -45 -19 -11
-39 -29 -45 -40 -9 -18 -5 -26 31 -57 53 -45 77 -51 117 -30 28 14 71 67 71
87 0 4 -13 23 -30 41 -16 19 -30 42 -30 52 0 18 -30 75 -40 75 -3 0 -13 -13
-23 -29z"/>
<path d="M2203 2045 c-11 -48 -5 -56 19 -27 26 30 28 39 9 56 -17 15 -18 14
-28 -29z"/>
<path d="M5602 2060 c0 -19 2 -27 5 -17 2 9 2 25 0 35 -3 9 -5 1 -5 -18z"/>
<path d="M2132 2071 c-16 -10 -12 -73 4 -78 6 -2 11 2 11 9 0 7 3 28 7 46 8
32 2 39 -22 23z"/>
<path d="M5660 2070 c0 -5 7 -7 15 -4 8 4 15 8 15 10 0 2 -7 4 -15 4 -8 0 -15
-4 -15 -10z"/>
<path d="M5660 2040 c0 -5 7 -10 15 -10 8 0 15 5 15 10 0 6 -7 10 -15 10 -8 0
-15 -4 -15 -10z"/>
<path d="M6333 1883 c9 -2 25 -2 35 0 9 3 1 5 -18 5 -19 0 -27 -2 -17 -5z"/>
<path d="M6178 1873 c6 -2 18 -2 25 0 6 3 1 5 -13 5 -14 0 -19 -2 -12 -5z"/>
<path d="M3253 1829 c23 -14 22 -32 -2 -24 -11 3 -22 2 -24 -2 -3 -5 -20 -10
-39 -11 -42 -3 -69 -30 -70 -70 -1 -42 17 -62 58 -62 19 0 34 -4 34 -10 0 -5
-20 -10 -44 -10 -50 0 -66 14 -77 68 l-7 37 -1 -42 c-2 -62 30 -94 97 -101 49
-4 54 -2 87 31 33 33 35 39 35 99 0 68 -18 108 -48 108 -16 -1 -16 -1 1 -11z"/>
<path d="M8000 1810 c-14 -4 -35 -5 -47 -3 -17 4 -23 1 -23 -11 0 -9 7 -16 16
-16 27 0 94 23 94 32 0 9 -5 9 -40 -2z"/>
<path d="M2201 1753 c-1 -34 4 -65 9 -68 12 -8 12 81 0 110 -6 14 -9 2 -9 -42z"/>
<path d="M7840 1804 c0 -15 22 -44 34 -44 16 0 29 27 20 41 -6 10 -54 13 -54
3z"/>
<path d="M2136 1793 c-13 -13 -6 -63 9 -63 10 0 15 10 15 29 0 30 -12 46 -24
34z"/>
<path d="M2787 1794 c-16 -16 -7 -44 14 -44 15 0 20 5 17 22 -3 22 -19 33 -31
22z"/>
<path d="M2850 1769 c0 -20 4 -29 13 -26 6 2 11 12 11 21 -1 9 2 16 8 16 5 0
6 5 3 10 -14 22 -35 10 -35 -21z"/>
<path d="M3494 1759 c3 -17 6 -38 6 -45 0 -29 19 -12 26 22 5 26 3 39 -7 45
-25 16 -32 10 -25 -22z"/>
<path d="M3450 1760 c0 -11 5 -20 10 -20 6 0 10 9 10 20 0 11 -4 20 -10 20 -5
0 -10 -9 -10 -20z"/>
<path d="M3572 1738 c-16 -16 -15 -28 3 -28 8 0 15 9 15 20 0 23 -2 24 -18 8z"/>
<path d="M5226 1733 c-12 -12 -6 -54 10 -60 28 -11 38 13 17 41 -11 14 -23 22
-27 19z"/>
<path d="M9668 1623 c12 -2 30 -2 40 0 9 3 -1 5 -23 4 -22 0 -30 -2 -17 -4z"/>
<path d="M9388 1613 c18 -2 45 -2 60 0 15 2 0 4 -33 4 -33 0 -45 -2 -27 -4z"/>
<path d="M6451 1426 c-29 -19 -76 -40 -104 -47 -104 -24 -123 -36 -148 -92
-25 -59 -59 -188 -48 -181 9 5 131 -21 171 -37 31 -13 41 -36 63 -144 l16 -80
-67 -64 c-76 -72 -80 -73 -189 -21 -68 32 -87 61 -101 149 -9 55 0 81 46 143
l41 53 -55 -59 c-53 -58 -56 -59 -80 -46 -14 7 -29 10 -33 6 -12 -12 -5 -125
11 -179 9 -29 25 -68 37 -87 l22 -35 11 32 c6 17 14 35 18 38 4 4 45 -12 92
-36 l85 -44 41 -87 42 -87 54 -11 c63 -13 236 -10 246 5 4 5 11 6 15 1 12 -12
-33 -44 -80 -57 -40 -11 -188 -8 -237 5 -14 3 -5 -4 20 -16 38 -19 61 -22 150
-22 59 0 125 6 150 14 25 7 48 13 53 12 4 -1 7 3 7 9 0 5 5 7 10 4 6 -3 10 -1
10 6 0 7 3 9 6 6 10 -9 85 53 78 64 -3 5 8 27 25 48 42 53 39 60 -5 11 -20
-22 -60 -51 -89 -65 -56 -26 -87 -34 -47 -11 21 11 22 14 8 25 -9 7 -29 11
-46 9 -16 -3 -30 -1 -30 3 0 4 9 48 21 98 l21 91 74 61 c84 69 103 71 156 18
16 -16 31 -29 33 -29 6 0 27 67 35 116 17 101 -19 246 -79 314 l-22 25 6 -23
c8 -29 -12 -53 -66 -77 -39 -18 -42 -18 -67 -1 -15 9 -64 35 -108 56 -59 28
-87 48 -102 72 -11 18 -34 46 -51 62 -40 38 -39 59 4 86 30 19 42 30 32 30 -1
0 -27 -15 -56 -34z m176 -232 c41 -20 87 -49 103 -64 32 -30 60 -112 60 -178
0 -41 -5 -49 -67 -113 -64 -66 -68 -69 -102 -63 -38 7 -191 62 -203 73 -4 3
-16 51 -27 106 -16 86 -17 104 -5 126 15 30 141 149 157 149 6 0 44 -16 84
-36z m173 -658 c0 -2 -7 -7 -16 -10 -8 -3 -12 -2 -9 4 6 10 25 14 25 6z"/>
<path d="M5155 1430 c-9 -15 -10 -172 -2 -197 15 -42 24 -23 26 50 0 39 5 88
11 107 5 19 10 38 10 42 0 11 -38 10 -45 -2z"/>
<path d="M5347 1394 c5 -13 3 -16 -10 -11 -16 6 -67 -27 -67 -44 0 -6 5 -7 10
-4 6 4 -3 -15 -19 -41 -17 -26 -28 -51 -25 -55 3 -5 0 -9 -5 -9 -6 0 -11 -7
-11 -15 0 -8 -5 -15 -10 -15 -6 0 -30 -18 -52 -40 -23 -22 -46 -40 -51 -40
-16 0 -162 143 -170 167 -6 17 -4 31 7 48 22 33 14 31 -29 -6 -40 -36 -43 -45
-15 -52 11 -3 20 -12 20 -20 0 -13 -5 -13 -31 -4 -30 12 -33 10 -74 -35 -24
-27 -52 -73 -65 -109 -21 -54 -24 -79 -22 -181 2 -130 8 -149 82 -258 192
-281 524 -310 746 -67 54 59 107 156 123 227 15 65 13 165 -5 240 -32 141
-173 290 -313 335 -17 5 -20 3 -14 -11z m-344 -233 c31 -32 57 -67 57 -78 0
-10 -13 -33 -30 -51 -24 -26 -30 -29 -30 -15 -1 13 -10 8 -35 -22 -19 -22 -35
-45 -35 -52 0 -6 -4 -14 -8 -17 -4 -2 -8 4 -8 15 0 10 4 19 8 19 4 0 8 5 8 11
0 6 -7 8 -16 5 -9 -4 -23 -1 -30 5 -11 9 -14 8 -14 -6 0 -12 -6 -16 -19 -12
-14 3 -18 1 -14 -9 7 -18 -2 -18 -35 2 -25 15 -25 15 -8 0 21 -17 22 -16 -26
-20 -7 -1 -16 -8 -21 -16 -4 -8 -6 20 -4 62 5 97 48 195 104 232 48 33 83 22
156 -53z m261 -16 c-4 -8 -10 -12 -15 -9 -11 6 -2 24 11 24 5 0 7 -7 4 -15z
m-151 -137 c4 -13 1 -26 -6 -30 -8 -5 -7 -8 5 -8 21 0 35 -57 18 -73 -10 -9
-12 -7 -7 10 4 20 3 21 -15 12 -19 -10 -19 -11 -2 -30 16 -18 16 -19 1 -13
-10 3 -17 1 -17 -5 0 -6 -9 -11 -20 -11 -11 0 -20 5 -20 11 0 6 7 9 15 5 8 -3
15 -1 15 4 0 6 -9 10 -19 10 -21 0 -36 -26 -21 -35 6 -4 10 -11 10 -17 0 -6
-7 -5 -17 3 -15 12 -16 12 -10 -3 4 -13 2 -15 -10 -11 -12 5 -15 2 -10 -10 3
-9 2 -19 -3 -22 -6 -4 -10 4 -10 16 0 29 -11 18 -33 -34 -26 -63 -12 1 19 84
22 58 104 169 125 169 4 0 9 -10 12 -22z m-149 -68 c-15 -28 -29 -49 -31 -46
-6 5 44 96 53 96 2 0 -8 -23 -22 -50z m-74 0 c0 -5 -4 -10 -10 -10 -5 0 -10 5
-10 10 0 6 5 10 10 10 6 0 10 -4 10 -10z"/>
<path d="M5092 948 c5 -15 28 -23 28 -10 0 5 -7 13 -16 16 -10 4 -14 1 -12 -6z"/>
<path d="M5065 919 c-11 -16 -1 -19 13 -3 7 8 8 14 3 14 -5 0 -13 -5 -16 -11z"/>
<path d="M3912 1378 c4 -9 0 -24 -7 -35 -20 -26 -18 -35 8 -31 28 4 36 49 11
69 -16 12 -17 12 -12 -3z"/>
<path d="M9150 1370 c-42 -42 -38 -99 11 -155 39 -45 61 -44 96 2 33 43 38
104 10 146 -14 22 -25 27 -57 27 -26 0 -47 -7 -60 -20z"/>
<path d="M1420 1328 c-18 -29 -39 -63 -46 -75 -7 -12 -27 -24 -43 -28 -33 -7
-47 -21 -83 -85 -14 -25 -37 -57 -52 -72 -23 -26 -31 -28 -96 -28 -69 0 -71
-1 -88 -31 -15 -28 -112 -169 -180 -261 -15 -20 -42 -45 -59 -55 -31 -17 -33
-17 -46 1 -10 14 -21 17 -41 12 -21 -5 -35 -23 -65 -84 -20 -42 -52 -103 -70
-134 -18 -32 -28 -58 -23 -58 13 0 65 82 93 145 35 81 93 129 114 95 22 -35
82 13 165 133 28 39 65 90 83 112 17 22 39 51 47 64 13 19 29 26 80 33 73 10
101 30 157 116 32 49 55 64 68 42 10 -16 35 1 35 24 0 22 54 105 91 139 11 10
18 24 16 30 -8 26 -26 14 -57 -35z"/>
<path d="M5757 1373 c-11 -10 -8 -45 3 -38 6 4 8 10 5 15 -3 5 -1 11 5 15 6 4
10 -5 10 -19 0 -14 -6 -26 -12 -26 -9 0 -8 -3 2 -9 22 -14 30 -4 27 35 -2 32
-22 46 -40 27z"/>
<path d="M3804 1355 c-8 -21 4 -35 30 -35 29 0 35 6 29 31 -7 24 -20 25 -26 2
-4 -17 -5 -17 -6 0 -1 21 -19 23 -27 2z"/>
<path d="M5818 1343 c5 -21 7 -23 10 -9 2 10 0 22 -6 28 -6 6 -7 0 -4 -19z"/>
<path d="M478 1143 c-1 -120 -2 -344 -3 -498 0 -242 -2 -280 -15 -280 -8 0
-17 -4 -20 -10 -3 -7 179 -11 533 -13 368 -1 538 1 535 8 -2 7 -167 12 -496
14 -270 1 -494 5 -497 8 -3 3 -6 226 -6 497 0 424 -2 491 -14 491 -13 0 -15
-35 -17 -217z"/>
<path d="M4530 1349 c0 -6 -7 -9 -15 -5 -19 7 -20 -8 -2 -23 11 -8 16 -5 25
14 7 15 8 25 2 25 -6 0 -10 -5 -10 -11z"/>
<path d="M8583 1343 c-36 -7 -74 -60 -67 -91 8 -38 36 -75 68 -90 25 -13 30
-12 53 10 14 12 32 38 39 56 12 27 12 37 0 67 -9 21 -26 39 -41 45 -15 6 -27
9 -28 9 -1 -1 -12 -4 -24 -6z"/>
<path d="M9699 1335 c-14 -8 -32 -29 -39 -46 -12 -29 -11 -36 6 -67 54 -92
144 -74 161 33 5 29 0 39 -25 65 -33 33 -62 37 -103 15z"/>
<path d="M4575 1330 c-16 -7 -17 -9 -3 -9 9 -1 20 4 23 9 7 11 7 11 -20 0z"/>
<path d="M3080 839 l0 -471 -192 3 c-106 1 -202 -1 -213 -4 -11 -3 -33 -6 -48
-6 -16 -1 -26 -5 -22 -11 8 -13 1095 -14 1095 -1 0 6 -15 11 -32 13 l-33 3 0
360 0 360 -99 3 -98 3 4 -361 4 -360 -46 -1 c-25 -1 -65 -2 -90 -3 l-45 -1 4
473 4 472 -97 0 -96 0 0 -471z m406 -434 c-3 -8 -2 -14 2 -14 4 1 27 1 51 0
62 -1 43 -14 -24 -16 -46 -1 -55 1 -55 16 0 14 10 24 29 28 2 1 1 -6 -3 -14z
m-236 -16 c0 -12 -40 -17 -100 -12 -33 3 -58 9 -55 12 5 9 155 8 155 0z"/>
<path d="M8883 1300 c-24 -10 -53 -58 -53 -89 0 -28 67 -101 92 -101 30 0 56
18 73 50 24 46 19 87 -14 121 -30 29 -58 35 -98 19z"/>
<path d="M9409 1281 c-16 -16 -29 -38 -29 -48 1 -27 34 -95 58 -116 19 -17 22
-17 52 -2 38 20 70 70 70 112 0 23 -8 38 -31 57 -41 35 -83 34 -120 -3z"/>
<path d="M1980 1278 c-53 -32 -186 -78 -228 -78 -86 0 -86 1 -79 -124 14 -252
101 -428 269 -538 31 -21 64 -38 72 -38 62 0 195 110 268 222 70 106 118 279
118 424 l0 42 -56 7 c-78 9 -147 31 -227 71 -80 40 -91 41 -137 12z m-15 -98
c3 -5 12 -7 19 -4 9 3 15 -5 18 -25 4 -25 1 -31 -14 -31 -10 0 -18 -6 -18 -14
0 -16 -21 -26 -55 -26 -13 0 -26 -3 -28 -7 -3 -5 52 -9 121 -9 70 -1 146 -7
170 -13 l43 -12 -6 -67 c-4 -37 -13 -79 -20 -94 -11 -23 -11 -29 1 -39 8 -7
14 -22 12 -33 -3 -18 -13 -22 -67 -29 -35 -4 -75 -14 -88 -21 -25 -13 -28 -12
-182 31 -11 3 -13 19 -8 78 4 47 3 75 -3 75 -6 0 -10 14 -10 31 0 27 -6 33
-55 55 -30 14 -55 32 -55 39 0 7 -5 15 -10 17 -6 2 -13 20 -17 41 l-6 37 54 1
c30 0 74 6 99 13 56 17 97 19 105 6z"/>
<path d="M1980 863 c-41 -2 -79 -9 -85 -15 -14 -14 184 -3 198 11 8 8 4 10
-13 9 -14 -1 -59 -4 -100 -5z"/>
<path d="M2476 1230 c-3 -14 -10 -76 -16 -137 -23 -241 -101 -413 -248 -544
-58 -52 -168 -119 -196 -119 -24 0 -105 50 -175 109 -62 52 -135 146 -163 211
-26 60 -68 222 -70 274 -1 36 -2 37 -5 9 -5 -42 10 -127 43 -235 43 -141 147
-264 317 -375 57 -36 77 -34 160 19 90 56 117 80 176 152 82 101 117 170 152
298 32 117 55 319 39 348 -7 11 -10 9 -14 -10z"/>
<path d="M4161 1192 c-74 -37 -99 -116 -62 -201 27 -64 27 -70 -6 -40 l-26 24
23 -43 c13 -23 39 -54 57 -68 51 -39 86 -91 86 -127 0 -32 0 -32 12 8 15 45
61 132 77 141 9 6 6 -12 -9 -53 -10 -26 6 -12 40 36 46 63 73 117 81 161 7 35
7 35 -11 14 -10 -12 -23 -30 -30 -40 -9 -16 -10 -12 -6 22 7 56 -12 108 -53
150 -31 30 -41 34 -87 34 -30 0 -67 -7 -86 -18z m117 -78 c31 -22 29 -67 -4
-93 -34 -27 -52 -26 -81 1 -25 24 -31 76 -11 96 17 17 69 15 96 -4z"/>
<path d="M8170 1190 c0 -5 5 -10 10 -10 6 0 10 5 10 10 0 6 -4 10 -10 10 -5 0
-10 -4 -10 -10z"/>
<path d="M7640 1134 c-13 -33 -2 -47 31 -42 19 2 24 9 24 33 0 23 -5 31 -22
33 -17 3 -26 -4 -33 -24z"/>
<path d="M9070 1145 c-19 -9 -51 -32 -71 -51 l-37 -36 -54 11 c-64 14 -86 8
-100 -28 -10 -26 -10 -26 -25 17 -20 58 -49 76 -110 68 -67 -10 -113 -10 -147
-1 -20 6 -39 3 -61 -9 -38 -21 -48 -48 -66 -183 -10 -75 -10 -94 0 -107 8 -9
20 -16 27 -16 15 0 19 13 34 115 11 67 23 96 32 78 3 -4 0 -74 -5 -155 -8
-115 -7 -151 2 -162 9 -11 12 -61 11 -176 l-1 -160 29 0 c26 0 30 4 36 37 3
21 6 74 6 118 0 112 10 185 25 185 28 0 37 -34 48 -179 10 -144 11 -149 33
-154 13 -2 25 -3 26 -1 2 1 0 74 -3 161 -5 128 -4 160 7 166 17 10 18 79 3
218 -8 73 -8 104 0 112 18 18 23 2 34 -100 5 -54 15 -101 21 -105 21 -14 36
25 36 96 0 39 4 78 10 86 17 28 23 -19 17 -140 -6 -99 -4 -119 8 -124 13 -4
15 -35 15 -186 l0 -180 30 0 30 0 1 133 c0 72 4 152 8 177 l7 45 17 -33 c13
-23 21 -76 29 -177 11 -138 12 -145 33 -145 21 0 21 2 18 155 -1 86 -5 160 -8
165 -3 5 2 13 10 17 13 8 14 18 4 79 -18 102 -23 224 -10 224 7 0 11 -27 11
-69 0 -62 11 -93 27 -78 3 3 8 44 10 91 6 82 15 117 28 104 16 -16 0 -280 -20
-330 -5 -12 1 -18 23 -23 l29 -6 5 -159 c3 -88 7 -162 9 -165 3 -2 15 -6 27
-7 22 -3 22 -1 27 157 3 88 10 164 16 170 6 6 16 2 29 -10 16 -17 20 -40 25
-150 8 -171 9 -175 43 -175 l27 0 -2 78 c-8 242 -8 252 5 257 16 6 15 38 -4
184 -8 67 -14 129 -12 139 7 31 38 -44 45 -109 7 -70 19 -79 104 -79 l51 0 -7
93 c-8 99 -15 117 -49 117 -16 0 -29 12 -45 41 -36 63 -71 79 -166 78 -44 -1
-96 1 -115 5 -22 4 -48 0 -70 -9z"/>
<path d="M2729 1133 c-20 -3 -28 -11 -30 -31 -2 -15 -3 -181 -1 -369 l3 -343
94 0 95 0 0 375 0 375 -67 -1 c-38 -1 -80 -4 -94 -6z"/>
<path d="M9590 1119 c-19 -12 -38 -27 -42 -33 -10 -15 -10 -228 0 -244 12 -18
41 -4 47 22 3 11 6 50 7 85 2 45 7 66 17 69 12 4 13 -20 7 -159 -6 -160 -6
-164 15 -177 18 -12 21 -20 15 -58 -3 -24 -3 -93 1 -153 6 -106 7 -109 30
-114 14 -2 26 1 28 7 2 6 6 78 8 159 3 82 9 153 14 158 5 5 16 4 27 -4 14 -10
19 -39 28 -157 11 -149 20 -176 53 -164 17 7 17 18 12 141 -3 73 -10 141 -15
149 -7 12 -4 22 10 36 18 18 19 29 13 151 -3 73 -8 140 -11 150 -3 9 -1 17 5
17 18 0 29 -33 36 -117 4 -46 11 -83 15 -83 19 0 40 34 40 63 0 68 -22 200
-36 223 -9 12 -35 31 -60 40 -36 14 -49 15 -74 4 -17 -7 -43 -10 -62 -6 -83
17 -93 17 -128 -5z"/>
<path d="M7778 1103 c6 -2 18 -2 25 0 6 3 1 5 -13 5 -14 0 -19 -2 -12 -5z"/>
<path d="M8065 1090 c-11 -18 15 -80 34 -80 20 0 61 27 61 41 0 33 -79 65 -95
39z"/>
<path d="M7377 1023 c-12 -11 -8 -48 8 -70 l15 -22 43 19 c43 20 47 32 20 63
-16 17 -73 24 -86 10z"/>
<path d="M7256 985 c-13 -34 -5 -55 24 -70 34 -18 35 -15 16 40 -15 43 -30 55
-40 30z"/>
<path d="M7616 974 c-19 -18 -21 -55 -4 -72 7 -7 34 -12 60 -12 53 0 58 9 37
69 -9 26 -16 31 -44 31 -19 0 -41 -7 -49 -16z"/>
<path d="M7830 942 c0 -38 5 -53 23 -70 29 -27 41 -28 27 -3 -19 36 -3 52 44
44 38 -6 40 -5 27 11 -8 10 -35 27 -60 39 -25 11 -49 22 -53 24 -5 2 -8 -18
-8 -45z"/>
<path d="M7441 914 c-19 -13 -29 -24 -22 -24 19 0 71 30 71 40 0 15 -11 11
-49 -16z"/>
<path d="M7260 721 c-18 -5 -21 -9 -12 -15 14 -9 942 -9 950 -1 3 3 3 8 -1 11
-8 8 -907 13 -937 5z"/>
<path d="M7839 646 c-2 -3 -28 -6 -57 -7 -29 -2 -55 -6 -58 -11 -8 -12 74 -8
131 7 42 11 45 13 19 14 -17 0 -33 -1 -35 -3z"/>
<path d="M7978 643 c12 -2 30 -2 40 0 9 3 -1 5 -23 4 -22 0 -30 -2 -17 -4z"/>
<path d="M4198 627 c-8 -9 -33 -24 -54 -34 -34 -16 -39 -23 -42 -56 -7 -86 93
-151 181 -118 13 5 38 23 55 41 27 27 32 39 32 80 0 42 -4 51 -30 70 -39 28
-121 38 -142 17z m86 -47 c15 -26 16 -36 6 -65 -21 -64 -87 -76 -120 -22 -26
42 -25 63 5 92 36 37 85 34 109 -5z"/>
<path d="M7517 634 c-1 -1 -58 -4 -126 -7 -68 -3 -128 -10 -133 -15 -10 -10
122 -7 337 7 l110 7 -93 5 c-52 2 -94 3 -95 3z"/>
<path d="M8113 633 c9 -2 23 -2 30 0 6 3 -1 5 -18 5 -16 0 -22 -2 -12 -5z"/>
<path d="M9467 633 c-4 -3 -7 -66 -7 -140 l0 -133 24 0 c21 0 24 6 30 53 8 67
8 156 0 196 -6 29 -30 42 -47 24z"/>
<path d="M8089 576 c-3 -3 -189 -6 -412 -6 -224 0 -413 -3 -422 -6 -8 -4 -15
-13 -15 -21 0 -12 19 -13 128 -6 129 8 170 8 596 4 155 -1 243 2 249 8 6 6 9
13 6 15 -7 8 -124 18 -130 12z"/>
<path d="M6280 495 c-7 -9 -8 -15 -2 -15 5 0 12 7 16 15 3 8 4 15 2 15 -2 0
-9 -7 -16 -15z"/>
<path d="M7253 463 c-7 -2 -13 -11 -13 -19 0 -10 14 -14 55 -14 48 0 55 2 55
20 0 17 -6 20 -42 19 -24 0 -49 -3 -55 -6z"/>
<path d="M7387 450 c5 -18 13 -20 72 -18 l66 1 -60 6 c-40 4 -59 10 -57 19 1
6 -4 12 -12 12 -9 0 -12 -7 -9 -20z"/>
<path d="M7425 460 c-3 -5 1 -10 9 -10 9 0 16 5 16 10 0 6 -4 10 -9 10 -6 0
-13 -4 -16 -10z"/>
<path d="M7748 463 c6 -2 18 -2 25 0 6 3 1 5 -13 5 -14 0 -19 -2 -12 -5z"/>
</g>
</svg>
